<svg width="1000.0000000000001" height="1000.0000000000001" xmlns="http://www.w3.org/2000/svg">
 <metadata>Svg Vector Icons : http://www.onlinewebfonts.com/icon</metadata>

 <g>
  <title>background</title>
  <rect fill="none" id="canvas_background" height="402" width="582" y="-1" x="-1"/>
 </g>
 <g>
  <title>Layer 1</title>
  <path fill="#ffffff" id="svg_9" d="m227.690001,14.289993c-11.07,5.36 -16.43,21.43 -14.64,42.85c2.14,20.35 11.42,31.43 26.42,31.43l8.57,0l0,135.70001c0,150.35 0.36,152.85 21.78,160.35c6.43,2.14 23.21,3.93 37.5,3.93l26.43,0l0,15.35l0,15.36l-32.14,10c-42.85,13.21 -71.42,32.14 -81.78,53.57c-7.14,14.64 -7.5,18.21 -4.29,35c13.57,64.64 75.71,153.2 133.21001,189.99c18.21,11.42 20.35,13.93 18.57,22.85c-0.71,5.36 -8.57,53.93 -17.5,107.85c-15.00001,95.35001 -15.36001,98.56001 -9.64,110.71001c7.14,14.29 25.71,25 61.43,34.64c18.57,5.36 36.78,6.43 92.85,6.07c66.07,0 71.07,-0.72 98.92,-9.64c32.85,-11.07 46.07,-20.71 50.71,-36.43c2.14,-8.93 -14.28,-127.85001 -30,-211.42001c-1.79,-10.71 -0.71,-12.14 18.57,-24.64c56.78,-36.07 115.71,-118.56 131.78,-184.63c5.72,-22.86 5.72,-23.57 -2.14,-40c-9.64,-20 -37.85,-40 -71.07,-50.35l-21.78,-6.78l0,-18.93l0,-18.57l26.78,0c28.93,0 45.36,-5.71 51.78,-17.5c2.14,-4.64 3.57,-57.14 3.57,-144.63l0,-137.85001l8.93,0c5,0 13.21,-3.93 17.86,-8.93c7.5,-7.14 8.93,-12.14 8.93,-30.35c0,-18.21 -1.43,-23.21 -8.93,-30.36l-8.57,-8.93l-267.12,0.36c-179.29001,0 -269.64001,1.43 -274.99001,3.93z"/>
  <path id="svg_4" d="m293.400004,119.279994c-4.29,4.28 -2.86,15 2.5,16.78c2.5,1.07 12.5,3.22 22.14,4.29c9.64,1.43 20.36,5.71 23.93,9.29c9.64,10 26.07,8.93 33.570001,-2.5c5.36,-8.57 5.36,-10.36 0.71,-18.93c-5.36,-9.29 -11.78,-10.36 -38.920001,-6.78c-2.86,0.36 -13.57,-0.71 -23.21,-2.14c-10.01,-1.44 -19.3,-1.44 -20.72,-0.01z"/>
  <path fill="#50a2c8" id="svg_5" d="m405.17001,452.83c-58.57,8.21 -107.50001,25 -122.85001,42.5c-4.29,4.64 -7.14,12.86 -7.14,20.71c0,40 85.35001,66.07 215.70001,65.71c104.99,0 176.06,-15.36 204.99,-43.93c11.78,-11.78 13.57,-15 11.42,-25c-3.21,-15.71 -13.21,-25.35 -38.57,-36.78c-39.28,-17.5 -78.57,-23.57 -163.56,-25c-42.13,-0.71 -87.13,0 -99.99,1.79z"/>
  <path id="svg_3" d="m227.690003,14.289993c-11.07,5.36 -16.43,21.43 -14.64,42.850001c2.14,20.35 11.42,31.43 26.42,31.43l8.57,0l0,135.700002c0,150.350002 0.36,152.850002 21.78,160.350002c6.43,2.14 23.21,3.93 37.500001,3.93l26.43,0l0,15.35l0,15.36l-32.14,10c-42.850001,13.21 -71.420001,32.14 -81.780001,53.570001c-7.14,14.64 -7.5,18.21 -4.29,35.000001c13.57,64.640001 75.710001,153.200002 133.210002,189.990003c18.21,11.42 20.35,13.93 18.57,22.85c-0.71,5.36 -8.57,53.930001 -17.5,107.850002c-15,95.350001 -15.36,98.560001 -9.64,110.710002c7.14,14.29 25.71,25 61.430001,34.640001c18.57,5.36 36.780001,6.43 92.850001,6.07c66.070001,0 71.070001,-0.72 98.920001,-9.64c32.85,-11.07 46.070001,-20.71 50.710001,-36.430001c2.14,-8.93 -14.28,-127.850002 -30,-211.420003c-1.79,-10.71 -0.71,-12.14 18.57,-24.64c56.780001,-36.070001 115.710002,-118.560002 131.780002,-184.630003c5.72,-22.86 5.72,-23.57 -2.14,-40.000001c-9.64,-20 -37.850001,-40.000001 -71.070001,-50.350001l-21.78,-6.78l0,-18.93l0,-18.57l26.78,0c28.93,0 45.360001,-5.71 51.780001,-17.5c2.14,-4.64 3.57,-57.140001 3.57,-144.630002l0,-137.850002l8.93,0c5,0 13.21,-3.93 17.86,-8.93c7.5,-7.14 8.93,-12.14 8.93,-30.35c0,-18.21 -1.43,-23.21 -8.93,-30.36l-8.57,-8.93l-267.120004,0.36c-179.290003,0 -269.640004,1.43 -274.990004,3.93zm538.180008,34.990001l0,17.86l-266.060004,0l-266.050004,0l0,-17.86l0,-17.86l266.050004,0l266.060004,0l0,17.86zm-32.14,171.780003c0,84.280001 -1.43,134.630002 -3.57,139.280002c-3.57,6.43 -10,6.78 -227.840003,6.78c-169.630003,0 -225.340003,-1.07 -228.560003,-4.29c-3.22,-3.21 -4.29,-38.930001 -4.29,-139.280002l0,-134.990002l232.130003,0l232.130003,0l0,132.500002zm-85.710001,181.770003c0,16.79 1.43,16.43 -44.640001,8.93c-65.000001,-11.07 -153.210002,-10.71 -235.700004,0.71l-16.07,2.14l0,-13.21l0,-12.86l148.200002,0l148.210002,0l0,14.29zm-28.57,31.43c63.570001,13.21 101.060002,29.28 119.630002,51.430001c11.78,13.93 10.71,26.42 -5.71,65.350001c-22.86,55.000001 -72.140001,114.990002 -117.140002,142.850002c-11.78,7.14 -22.14,15.36 -23.21,18.21c-1.07,2.5 6.07,53.930001 15.71,113.920002c12.5,77.140001 16.79,111.420002 14.29,115.710002c-6.79,12.86 -55.000001,26.78 -107.140002,30.71c-53.930001,4.29 -132.850002,-9.28 -153.920002,-26.07l-7.85,-6.79l16.78,-103.210002c16.79,-103.920002 18.57,-121.420002 13.57,-128.560002c-1.43,-1.79 -8.93,-7.5 -16.43,-12.14c-56.780001,-34.280001 -117.490002,-116.420002 -131.060002,-176.770003c-3.93,-18.21 -3.93,-20.71 2.86,-29.64c17.5,-23.93 64.990001,-44.280001 129.630002,-55.710001c46.070001,-8.21 52.850001,-8.57 137.490002,-7.5c60.360001,1.07 86.430001,2.85 112.500002,8.21z"/>
 </g>
</svg>