<svg width="630" height="630" xmlns="http://www.w3.org/2000/svg" preserveAspectRatio="xMidYMid meet">

 <g>
  <title>background</title>
  <rect fill="none" id="canvas_background" height="402" width="582" y="-1" x="-1"/>
 </g>
 <g>
  <title>Layer 1</title>
  <path d="m433.996159,165.498542c0,0 -0.499969,0 -0.499969,0c-0.5,0 -1,0 -1,0c0,0 -0.5,0 -1,0c0,0 -0.5,0 -0.5,0c-0.5,0 -0.5,0 -0.999969,0c0,0 -0.34671,0.229401 -1,0.5c-0.461945,0.191345 -1,0 -1.5,0c0,0 -0.646423,-0.353546 -0.999969,0c-0.353546,0.353546 -0.038055,0.30864 -0.5,0.499985c-0.65329,0.270599 -0.5,0.5 -1,0.5c0,0 -0.646454,-0.353546 -1,0c-0.353546,0.353546 -0.999969,1 -1.499969,1c0,0 -0.146454,-0.353546 -0.5,0c-0.353546,0.353546 -0.34671,0.729385 -1,0.999985c-0.461945,0.191345 -0.912201,0.04895 -1.499969,0.999985c-0.262878,0.425323 -1,0.5 -1,0.5c0,0 -0.5,0 -1,0c0,0 -0.146454,0.146454 -0.5,0.5c-0.353546,0.353546 -0.499969,0.499985 -0.499969,0.499985c0,0.5 -0.146454,0.146454 -0.5,0.5c-0.353546,0.353546 0,1 -0.5,1c0,0 0,0.499985 0.5,0.499985c0.5,0 0.5,0 0.999969,0c0,0 0.5,0 0.5,0c0.5,0 0.5,0 1,0.5c0,0 0,0 0.5,-0.5c0,0 0.5,0 1,0c0,0 0,0 0.499969,0c0.5,0 0.5,0 0.5,0c1,0 1,0 1,0c0.5,0 1,0 1,0c0,0 0.5,0 0.999969,0c0,0 0.5,0 0.5,0c0.5,-0.499985 1,-0.499985 1,-0.499985c0.5,0 0.84671,-0.729401 1.5,-1c0.461914,-0.19133 0.538025,0.191345 0.999969,0c0.65329,-0.270599 0.5,-0.5 0.5,-0.5c0.5,0 0.5,0 1,0c0.5,0 0.5,0 0.999969,0c0.5,0 0.5,-0.499985 0.5,-0.499985c0.5,0 1,0 1,0c0.5,-0.5 0.5,-0.5 1,-0.5c0.5,0 0.999969,0 0.999969,0c0.5,-0.5 0.846741,-0.729401 1.5,-0.999985c0.461945,-0.191345 0.5,0 0.5,0c0.5,-0.5 1.229401,-0.346741 1.499969,-1c0.191315,-0.461929 0.146454,-0.146439 0.5,-0.499985c0.353546,-0.353546 0,-0.5 0,-1c0,0 0,-0.5 0,-0.5c0,0 -0.5,0 -0.999969,0c0,0 -0.5,0 -1,0l0,0l0,0" id="svg_40" stroke-opacity="0" stroke-width="1.5" stroke="#000000" fill="#b2d9f5"/>
  <path d="m449.996033,121.998923c0,0 -0.5,0 -1,0c0,0 -0.5,0 -0.5,0c-0.499969,0 -0.499969,0 -0.999969,0c0,0 -0.538055,-0.191345 -1,0c-0.65329,0.270599 -1,0.5 -1,0.5c-0.5,0.499992 -0.999969,0.499992 -1.499969,0.499992c0,0 0.088135,0.243126 -1,0.499992c-0.486633,0.114876 -0.5,0 -1,0.5c0,0 -0.5,0 -0.999969,0.499992c0,0 -0.026764,-0.229752 -1,0c-1.088135,0.256874 -1,0.5 -1,0.5c-0.5,0.499992 -1,0.499992 -1,0.499992c-0.499969,0.5 -1.499969,0.999992 -1.499969,0.999992c0,0 -0.5,0.499992 -0.5,0.499992c0,0 -0.646454,0.146446 -1,0.5c-0.353546,0.353546 0.15329,0.729393 -0.5,0.999992c-0.461914,0.19133 -0.999969,0.499992 -0.999969,0.999992c0,0.499985 0,0.499985 -0.5,0.999985c0,0 -0.229401,-0.153275 -0.5,0.5c-0.191345,0.461945 0.353546,0.646439 0,0.999985c-0.353546,0.353546 -0.5,0.5 -0.5,1c0,0 -0.308655,0.53804 -0.5,0.999985c-0.270599,0.653275 -0.15329,0.729401 0.5,1c0.461945,0.191345 0.5,0 0.5,0c0.5,0 1,0 1,0c0.5,0 0.5,0.499985 0.999969,0.499985c0,0 0.5,0 0.5,0c0.5,-0.499985 0.5,-0.499985 0.5,-0.499985c0.5,-0.5 1.5,-0.5 1.5,-0.5c0.5,-0.5 0.5,-0.5 0.999969,-0.5c0,0 0,0 0.5,0c0.5,0 0.5,0 1,0c0,0 0.846741,-0.729401 1.5,-0.999985c0.461914,-0.19133 0.499969,-0.5 0.999969,-0.5c0.5,0 0.846741,-0.729401 1.5,-0.999985c0.461945,-0.191345 0.5,0 0.5,0c0.5,0 0.5,0 0.5,0c0.499969,0 0.999969,-0.5 0.999969,-0.5c0,0 0.34671,-0.229401 1,-0.5c0.461945,-0.191345 0.5,0 1,0c0,0 0.646423,-0.146469 0.999969,-0.5c0.353546,-0.353546 0.5,-0.499985 1,-0.499985c1,0 1.5,0 1.5,0c0,0 0.34671,-0.229401 0.999969,-0.5c0.461945,-0.191345 1,-0.499992 1,-0.499992c0,0 0.308655,-0.038063 0.5,-0.5c0.270599,-0.653275 0.646454,-1.146431 1,-1.499985c0.353546,-0.353546 0,-0.499992 0,-0.999992c0,-0.499992 0,-0.499992 0,-0.499992c0,-0.5 0,-0.999992 0,-0.999992c-0.5,0 -0.5,0 -1,0c0,0 0,-0.5 -0.5,-0.5c0,0 -0.146454,0.353554 -0.5,0c-0.353546,-0.353546 -0.5,-0.499992 -0.5,-0.499992c0,0 -0.499969,-0.499992 -0.999969,-0.499992c-0.5,0 -0.5,-0.5 -0.5,-0.5l-0.5,-0.499992l0,0l-0.5,0" id="svg_39" stroke-opacity="0" stroke-width="1.5" stroke="#000000" fill="#b2d9f5"/>
  <path d="m155.998627,167.49852c-0.5,0 -0.5,0 -1,-0.499985c0,0 -0.499985,0 -0.499985,0c-1,0 -1.646439,-0.146454 -1.999985,-0.5c-0.353546,-0.353546 -0.5,-0.5 -1,-0.5c-0.499985,0 -0.999985,0 -0.999985,0c-1.499985,-0.5 -1.999985,-0.5 -2.499985,-0.5c0,0 0,0 -0.499985,0c0,0 -0.5,0 -0.5,0c0,0 -0.5,0 -0.999985,0c0,0 -0.5,0.5 -0.5,0.5c-0.5,0.5 -0.5,0.5 -0.5,0.5c-0.499985,0.5 -0.385101,1.013367 -0.499985,1.499985c-0.256866,1.088104 -0.729401,0.84671 -1,1.499985c-0.191345,0.461945 0,0.5 0,0.5c-0.5,0.499985 -0.5,0.999985 -0.5,0.999985c0,0.5 0,0.5 0,1c0,0 0,0.499985 0,0.499985c0,0.5 0,1 0.5,1c0,0 0.146454,0.646439 0.5,0.999985c0.353546,0.353546 0.999985,0.5 0.999985,1c0,0 0.5,0 0.5,0c0.5,0.499985 0.5,0.499985 0.5,0.499985c0.999985,0 1.499985,0.5 1.499985,0.5c0.499985,0 0.999985,0 0.999985,0c0,0 0.5,0 0.5,0c0.5,0 0.5,0 0.999985,0c0.5,0 0.5,0 0.5,0c0.5,0 0.646439,-0.146454 0.999985,-0.5c0.353546,-0.353546 1,0 1,0c0,0 0.999985,0 0.999985,0c0.5,0 0.5,0 1,0c0,0 0.499985,0 0.499985,0c0.5,0 1,0 1,0c0,0 0.5,0 0.999985,0c0,0 0,0 1,0c0.499985,0 0.53804,0.191345 0.999985,0c0.653275,-0.270584 1.292892,0.207108 1.999985,-0.499985c0.353546,-0.353546 0.5,-0.5 0.5,-0.5c0.499985,0 0.499985,0 0.999985,0c0.5,0 0.5,0 0.5,0c0.5,0 0.999985,0 0.999985,0c0,0 1,-0.5 1,-0.5c0,0 0.499985,0 0.999985,0c0,0 0.5,0 1,-0.5c0,0 0,0 0.499985,0c0,0 0.5,0 0.5,0c0,-0.499985 -0.5,-0.499985 -0.5,-0.499985c-0.499985,-0.5 -0.499985,-0.5 -0.499985,-0.5c0,-0.5 -0.412216,-0.048935 -1,-0.999985c-0.262863,-0.425323 -0.146454,-0.146454 -0.5,-0.5c-0.353546,-0.353546 -0.34671,-1.229401 -0.999985,-1.499985c-0.461945,-0.191345 -0.5,0 -0.5,0c-0.499985,-0.5 -0.53804,-0.308655 -0.999985,-0.5c-0.653275,-0.270599 -0.54895,-0.912201 -1.499985,-1.499985c-0.425323,-0.262863 -1,0 -1.499985,0c0,0 -0.646454,0.353546 -1,0c-0.353546,-0.353546 -0.5,-0.5 -0.999985,-0.5c-0.5,0 -0.646454,-0.146439 -1,-0.499985c-0.353546,-0.353546 -0.999985,0 -1.499985,0c0,0 -0.5,0 -0.5,0c0,0 -0.34671,-0.229401 -0.999985,-0.5c-0.461945,-0.191345 -0.5,0 -0.5,0c-0.499985,-0.5 -0.999985,-0.5 -1.499985,-0.5c0,0 -0.5,0 -0.5,0c-0.999985,0 -0.999985,0 -0.999985,0c-0.5,0 -0.999985,0 -0.999985,0l-0.5,0" id="svg_38" stroke-opacity="0" stroke-width="1.5" stroke="#000000" fill="#b2d9f5"/>
  <path d="m122.498917,125.498897c-0.499992,0.499992 -0.999985,0.499992 -0.999985,0.499992c0,-0.499992 -0.5,-0.499992 -0.999992,-0.499992c0,0 -0.5,0 -0.5,0c0,0 -0.499992,0 -0.499992,0c-0.5,0 -0.146446,-0.146446 -0.5,-0.5c-0.353546,-0.353546 -0.499992,0 -0.499992,0c-0.999992,-0.499992 -0.999992,-0.499992 -0.999992,-0.499992c-0.499992,0 -0.999992,0 -1.499985,0c0,0 -0.499992,0 -0.999992,0c0,0 0,0 -0.499992,0c-0.5,0 -0.5,0 -0.999992,0c0,0 -0.646446,0.146446 -0.999992,0.499992c-0.353546,0.353546 -0.808647,0.038063 -0.999992,0.5c-0.270592,0.653275 -0.999992,0.499992 -0.999992,0.499992c0,0 -0.499992,0.499992 -0.499992,0.999992c0,0 0,0.499992 0,0.999992c0,0 0.353546,0.146446 0,0.499992c-0.353554,0.353546 -0.5,0 -0.5,0.5c0,0 0,0.499985 0,0.999985c0,0 0.5,0 0.5,0.5c0,0 0.999992,0.5 1.499985,0.5c0,0 0,0.499985 0.5,0.499985c0.499992,0 0.34671,0.229401 0.999985,0.5c0.461937,0.191345 0.999992,0 0.999992,0c0,0 0.5,0 0.999992,0c0,0 0,0 0.5,0c0.499992,0 0.999985,0.5 1.499985,0.5c0,0 0.499992,0 0.499992,0c0.5,0 0.5,0.499985 0.5,0.499985c0.499992,0 0.846703,0.229401 1.499985,0.5c0.461929,0.191345 0.538055,-0.191345 0.999992,0c0.653275,0.270599 0.84671,0.729401 1.499985,1c0.461929,0.191345 0.499992,0 0.499992,0c0.5,0 0.999992,0 1.499992,0c0.499992,0 0.499992,0 0.499992,0c0.5,0.499985 0.999992,0.499985 0.999992,0.499985c0,0 0.999992,0 0.999992,0c0.499992,0 0.499992,0 0.999992,0c0,0 0.499992,0 0.499992,0c0.5,0 0.999985,0 0.999985,0c0.5,0 1,0 1,0c0.5,0 0.999985,0 0.999985,0c0.5,0 1,0 1,0c0.499985,0 0.499985,0 0.999985,0c0,0 0.5,0 0.5,0c0.5,0 0.999985,0 1.499985,0.5c0,0 0,0 0.5,0c0,0 0.499985,0 0.999985,0c0,0 0.5,0 1,0c0,0 0.499985,0 0.499985,0c0.5,0 0.5,0 1,0c0,0 0.499985,0 0.999985,0c0,0 0.038055,0.191345 0.5,0c0.653275,-0.270599 0,-0.5 0,-0.5c0,-0.499985 0,-0.499985 0,-0.499985c0,-0.5 -0.146454,-0.646454 -0.5,-1c-0.353546,-0.353546 -0.5,-0.999985 -0.5,-0.999985c0,0 -0.499985,0 -0.499985,0c-0.5,0 -0.5,-0.5 -1,-0.5c0,0 -0.499985,0 -0.999985,-0.5c0,0 -0.5,0 -0.5,-0.499985c0,0 -0.5,0 -0.999985,0c-0.5,0 -0.646454,-0.146454 -1,-0.5c-0.353546,-0.353546 -0.499985,-0.5 -0.999985,-0.5c-0.5,0 -0.5,0 -0.5,0c-0.5,0 -0.999985,0 -1.499985,-0.5c0,0 -0.038055,-0.30864 -0.5,-0.499985c-0.653275,-0.270599 -0.499985,-0.5 -0.499985,-0.5c-0.5,0 -0.5,0 -1,-0.499992c0,0 -0.146454,-0.146446 -0.5,-0.5c-0.353546,-0.353546 -0.999985,0 -0.999985,0c0,-0.499992 -0.499992,-0.499992 -0.499992,-0.499992c-0.5,0 -0.5,-0.5 -0.999992,-0.5c-0.5,0 -0.5,0 -0.999992,-0.499992c0,0 -0.499992,0 -0.999992,0c0,0 0.153282,-0.229401 -0.499992,-0.499992c-0.461937,-0.191345 -0.5,-0.5 -0.999992,-0.5c0,0 -0.5,0 -0.5,0c-0.499992,0 -0.999985,-0.499992 -0.999985,-0.499992c0,0 -0.5,0 -0.999992,0c0,0 -0.5,0 -0.999992,0c0,0 0,0 -0.5,0c-0.499992,0 -0.499992,0 -0.999985,0c0,0 -0.5,0 -0.999992,0c0,0 -0.5,0 -0.999992,0c0,0 0,0 -0.499992,0l-0.5,0l0,0l-0.499992,0" id="svg_37" stroke-opacity="0" stroke-width="1.5" stroke="#000000" fill="#b2d9f5"/>
  <path d="m545.5,242.5c0,1 -1,1 -1,1c-1,0 -2,1 -2,1c0,0 -1,0 -2,1c0,0 -1,0 -1,0c0,0 -1,0 -2,0c0,0 -1,0 -2,0c0,0 0,0 -1,0c-1,0 -1.292908,0.292892 -2,1c-0.707092,0.707108 -1,1 -1,1c-1,0 -2,0 -2,0c-1,1 -0.292908,1.292892 -1,2c-0.707092,0.707108 -1.076111,-0.38269 -2,0c-1.30658,0.541199 -1,2 -1,2c-1,2 -1,2 -1,2c-1,1 -1,1 -1,2c0,0 -1,1 -1,1c0,1 -1,2 -1,2c0,1 0,1 0,1c-1,1 -1,1 -1,1c0,1 0,1 -1,2c0,0 0,0 0,1c0,0 0,1 0,2c0,0 0,1 0,1c0,1 0,1 0,1c0,2 0,2 0,2c0,1 0,3 -1,4c0,0 0,0 0,1c0,0 0,1 0,2c0,0 0,0 0,1c0,1 0,1 0,2c0,1 0,1 0,1c0,1 1,1 1,2c0,0 0,0 0,1c0,0 0.61731,1.076111 1,2c0.541199,1.306549 1,2 1,2c0,0 0,1 0,2c0,0 0,1 0,3c0,0 0,0 0,1c0,1 -0.707092,1.292908 0,2c0.707092,0.707092 0.292908,0.292908 1,1c0.707092,0.707092 0.292908,0.292908 1,1c0.707092,0.707092 1.292908,-0.707092 2,0c0.707092,0.707092 0.292908,0.292908 1,1c0.707092,0.707092 0.292908,0.292908 1,1c0.707092,0.707092 0,1 0,2c0,1 1,1 1,1c0,1 1,1 1,1c0,0 1,0 1,0c1,1 1,1 1,1c1,0 2,0 3,0c0,0 1,1 2,1c0,0 1,0 3,0c0,0 0,0 1,0c0,0 0,0 1,0c0,0 1,0 1,0c0,-1 1,-1 2,-1c1,0 1,-1 2,-1c0,0 1,0 1,0c1,-1 1,-1 1,-1c1,0 1,-1 2,-1c0,0 0.076111,-0.61731 1,-1c1.30658,-0.541199 1,-1 2,-1c0,0 1,-2 1,-2c0,0 0,-1 1,-1c0,0 -0.414185,-1.585785 1,-3c0.707092,-0.707092 1,-1 1,-2c0,0 -0.30658,-0.458801 1,-1c0.923889,-0.38269 1,-1 1,-1c0,0 0,-1 1,-3c0,0 1,-1 1,-2c0,0 0,0 0,-1c0,-1 0,-1 0,-2c0,0 0,-1 0,-1c0,-1 0,-1 1,-2c0,0 0,-1 0,-1c0,-1 0,-2 0,-2c0,0 0,-1 0,-2c0,0 0,-1 0,-2c0,0 0,0 0,-1c0,-1 0,-1 0,-2c0,0 0,-1 0,-1c0,-1 0,-1 0,-2c0,-1 0,-1 0,-1c0,-1 0,-2 0,-2c0,-1 0,-1 0,-2c0,0 -1,-1 -1,-2c0,0 0,-1 0,-2c0,0 -0.61731,-1.076126 -1,-2c-0.541199,-1.306564 -1,-1 -1,-2c0,-1 0,-1 0,-2c0,0 -0.292908,-0.292892 -1,-1c-0.707092,-0.707108 -1.292908,-0.292892 -2,-1c-0.707092,-0.707108 0,-1 -1,-2c0,0 -1,0 -2,0c0,0 0,-1 -1,-1c-1,0 -1.026733,0.229752 -2,0c-2.17627,-0.513748 -2,-1 -3,-2c0,0 -1,0 -1,0c-1,0 -1.292908,-0.292892 -2,-1c-0.707092,-0.707108 -2,0 -3,-1l-1,0l-1,0l0,0" id="svg_36" stroke-opacity="0" stroke-width="1.5" stroke="#000000" fill="#e2e2e2"/>
  <path d="m450.5,244.5c0,0 0,0 -1,0c0,0 0,0 -2,1c0,0 -1,1 -1,1c-1,0 -1.458801,-0.306564 -2,1c-0.38269,0.923874 -0.292908,0.292892 -1,1c-0.707092,0.707108 0,1 -1,2c0,0 0,1 0,1c-1,1 -1,2 -1,2c-1,1 -0.61731,2.076126 -1,3c-0.541199,1.306549 -2,1 -2,2c0,1 0,2 0,3c0,0 -1,1 -1,1c0,1 0,1 0,2c0,1 -1,2 -1,2c0,0 0,2 0,2c1,0 1,1 1,2c0,0 0,0 0,1c0,1 1,2 1,2c0,1 0,2 0,2c0,1 0,2 0,2c0,0 0.458801,0.693451 1,2c0.38269,0.923889 -0.38269,1.076111 0,2c0.541199,1.306549 1,1 1,1c0,1 0,2 0,2c0,1 0.292908,0.292908 1,1c0.707092,0.707092 0,2 1,4c0,0 0,1 1,1c0,0 1,1 1,1c0,0 1,1 1,1c0,0 0.292908,0.292908 1,1c0.707092,0.707092 1,0 1,0c1,0 2,1 2,1c1,0 1,1 1,1c1,0 2,1 2,1c0,1 1.292908,1.292908 2,2c0.707092,0.707092 2,1 2,1c1,0 2,0 2,0c1,0 1,0 2,0c0,0 0.292908,0.292908 1,1c0.707092,0.707092 2,0 2,0c0,0 2,1 3,1c0,0 0.693451,0.458801 2,1c0.923889,0.38269 2,0 3,0c0,0 1,0 1,0c1,0 1,0 2,0c1,0 1,0 1,0c1,0 1,0 2,0c2,0 2,-1 2,-1c1,0 2,0 2,0c1,0 1,0 2,0c0,0 1,1 3,1c0,0 0,0 1,0c1,0 1,0 2,0c1,0 1,0 2,0c0,0 1,0 1,0c1,0 1,0 2,0c1,0 1,0 1,0c1,0 2,0 2,0c1,0 2,0 2,0c0,0 1,0 2,0c1,0 1,0 2,0c0,0 1,0 1,0c2,0 2,0 2,0c1,0 2,0 3,0c1,0 1,0 1,0c2,0 3,0 6,0c0,0 1,0 1,0c1,0 1,0 3,0c0,0 1,0 2,0c0,0 1,-1 2,-1c1,0 1,0 2,0c0,0 1,0 3,0c0,0 0,0 0,0c-1,0 -1,0 -2,-1c0,0 -1,0 -1,0c0,0 -1,-1 -1,-1c-1,0 -1,-1 -1,-2c0,0 -1,0 -1,-2c0,0 -0.458801,0.306549 -1,-1c-0.38269,-0.923889 0,-1 0,-1c-1,-1 -1,-2 -1,-2c0,-1 0,-1 0,-2c0,0 0,-1 -1,-2c0,0 0,-1 0,-1c0,-1 0,-2 0,-2c0,0 0.707092,-1.292908 0,-2c-0.707092,-0.707092 -1,0 -1,-1c0,-1 0,-1 0,-2c0,0 0,-1 0,-2c0,0 0,0 0,-1c0,-1 0,-1 0,-1c0,-2 0,-2 0,-2c0,-1 0,-2 0,-2c0,-1 0,-1 0,-2c0,0 0,-1 0,-1c1,0 1,-1 1,-1c0,-1 0,-1 0,-1c1,-1 1,-1 1,-2c0,0 0,-1 0,-1c0,-1 0.486267,-0.823761 1,-3c0.229736,-0.973236 0,-1 0,-2c0,0 0,-1 0,-1c0,-1 1,-2 1,-3c0,-1 0,-1 0,-1c0,-1 0.292908,-1.292892 1,-2c0.707092,-0.707108 0,-1 0,-1c1,-1 1,-1 1,-2c0,0 0.292908,-0.292892 1,-1c0.707092,-0.707108 0.770264,-0.026749 1,-1c0.513733,-2.176254 1.076111,-1.61731 2,-2c1.30658,-0.541199 1.076111,-0.61731 2,-1c1.30658,-0.541199 1,-1 1,-1c1,0 1,0 3,-1c0,0 0,0 1,0c0,0 1,0 1,0c1,-1 2,-1 2,-1c0,0 1,-1 2,-1c0,0 1,-1 1,-1c0,0 -1,-1 -1,-1c-1,-1 -1,-1 -1,-1c0,0 -1,0 -1,0c0,0 -2,-1 -3,-1c0,0 -1,-1 -1,-1c0,0 -1,0 -1,0c-1,0 -2,0 -2,-1c0,0 -1,0 -2,0c0,0 0,0 -1,0c-1,0 -0.87854,-1.493454 -4,-2c-0.987061,-0.160187 -1,0 -2,0c0,0 -2,0 -2,0c0,0 -1,0 -2,0c0,0 -1,0 -2,0c0,0 0.30658,0.458801 -1,1c-0.923889,0.38269 -1,0 -2,0c0,0 -1,0 -1,0c-1,0 -1,0 -2,0c-1,0 -1,1 -3,1c0,0 -1,0 -3,1c0,0 -1,0 -2,0c0,0 -1,0 -2,0c0,0 0,0 -1,0c-1,0 -2,0 -4,0c0,0 -1,0 -2,0c-1,0 -1,0 -2,0c0,0 -1,0 -1,0c-1,0 -2,0 -2,0c0,0 -1,0 -2,0c-1,0 -3,1 -4,1c-1,0 -1.026764,-0.229752 -2,0c-2.176239,0.513748 -2,1 -3,1c-1,0 -3,1 -3,1c0,0 -1,0 -1,0c-1,0 -2,0 -2,0c-1,0 -2,0 -2,0c-3,2 -3,2 -4,2c0,0 -0.823761,0.486252 -3,1c-0.973236,0.229752 -1,0 -2,0c-1,0 -1,0 -1,0c-1,0 -1,1 -2,1c0,0 0,0 -1,0c-1,0 -1,0 -2,0c-1,0 -1,0 -1,0c-1,0 -1,1 -2,1c0,0 -1,0 -1,0c-1,0 -1,0 -2,1c0,0 -1,1 -1,1c-1,0 -2.292908,1.292892 -3,2c-0.707092,0.707108 -1,2 -1,3l0,0l-1,0" id="svg_35" stroke-opacity="0" stroke-width="1.5" stroke="#000000" fill="#f7f7f7"/>
  <path d="m465.5,302.5c0,0 0,1 0,1c0,1 0,1 0,2c0,0 0,1 0,1c0,1 0,1 0,2c0,0 0,1 0,2c0,0 -0.486267,-0.176239 -1,2c-0.229767,0.973236 0.765381,1.152252 0,3c-0.541199,1.306549 -1,1 -1,2c0,0 0,1 0,1c0,1 0,2 0,2c0,0 0,1 0,2c0,0 0,1 0,2c0,0 0.458801,-0.306549 1,1c0.38269,0.923889 0,1 0,2c0,0 0,1 0,1c0,1 0,1 0,2c0,1 -1.051453,1.298706 0,3c1.175568,1.9021 2,1 2,2c0,1 0,2 0,3c0,0 0,1 0,1c0,1 0,2 0,2c0,2 0,2 0,2c0,1 1,1 1,2c0,0 0,1 0,2c0,0 -0.38269,0.076111 0,1c0.541199,1.306549 1,1 1,2c0,0 0,1 1,2c0,0 0,1 0,3c0,0 1,2 1,2c0,1 0,2 1,2c0,0 0,1 1,3c0,0 0,1 1,1c0,0 0,1 0,2c0,1 0.458801,0.693451 1,2c0.38269,0.923889 0,2 0,2c0,2 0,2 1,3c0,0 0,1 0,1c1,0 -0.414215,1.585785 1,3c0.707092,0.707092 1,0 2,1c0,0 0,0 1,1c0,0 0,0 1,0c1,0 1,0 2,0c0,0 1.292908,-0.707092 2,0c0.707092,0.707092 1,1 2,1c0,0 0,0 1,0c1,0 1,0 2,0c1,0 2,-2 2,-2c1,0 1,0 3,0c1,0 0.693451,-0.458801 2,-1c1.847748,-0.765381 2.292908,-0.292908 3,-1c0.707092,-0.707092 1,0 2,0c1,0 2,0 2,-1c0,0 2,0 2,0c0,0 1,0 2,0c0,0 0,0 1,0c1,0 1,0 2,0c0,0 1,0 1,0c1,0 1,0 4,0c1,0 1,0 2,0c0,0 1,0 2,0c0,0 0,0 1,0c1,0 1,-1 2,-1c1,0 1,0 1,0c1,0 2,0 2,0c1,0 1,0 2,0c0,0 3,0 3,0c1,0 2,0 2,0c1,0 2,0 2,0c2,0 3,0 3,0c0,0 1,0 2,0c0,0 1,0 1,-1c0,-2 -0.458801,-1.693451 -1,-3c-0.38269,-0.923889 -1,-1 -1,-1c0,-1 0,-1 0,-1c0,-1 0,-1 0,-2c0,0 0,-1 0,-1c0,-1 0,-2 0,-2c-1,-1 -0.61731,-1.076111 -1,-2c-0.541199,-1.306549 -1,-1 -1,-2c0,0 0,0 0,-1c0,-1 -1,-2 -1,-2c0,0 0,-1 0,-2c0,0 0,-1 0,-2c0,0 0,0 0,-1c0,-1 0,-1 0,-2c0,0 0,-1 0,-1c0,-1 0,-1 0,-2c0,-1 0,-1 0,-2c0,-1 0,-2 0,-3c0,0 -0.458801,0.306549 -1,-1c-0.38269,-0.923889 0,-1 0,-2c0,0 0,-1 0,-1c0,-1 0,-2 0,-3c0,0 0,-1 0,-2c0,0 0,-1 0,-2c0,0 0,0 0,-1c0,-1 0,-1 0,-2c0,0 0,-1 0,-1c0,-1 0,-3 0,-3c0,0 0,-1 -1,-1c0,0 0,-1 0,-1c0,-1 0,-2 0,-2c0,0 0,-1 0,-2c0,0 0,-1 0,-1c1,-1 1,-1 1,-2c0,0 0.292908,-1.292908 1,-2c0.707092,-0.707092 0.292908,-0.292908 1,-1c0.707092,-0.707092 1,-1 2,-1c0,0 0,-1 0,-2c0,0 0,-1 0,-2c0,0 0,0 0,-1c0,-1 0.707092,-1.292908 0,-2c-0.707092,-0.707092 -1,0 -2,0c-2,0 -2,0 -4,0c-1,0 -1.152222,-0.765381 -3,0c-1.30658,0.541199 -1,1 -4,1c-2,0 -2,0 -3,0c-1,0 -1,0 -1,0c-2,0 -2,0 -4,0c0,0 0,0 -1,0c-1,0 -1,0 -2,0c-1,0 -2,0 -4,0c-1,0 -2,0 -3,-1c0,0 -1,0 -2,0c0,0 -2,0 -2,0c-2,0 -3,0 -4,0c0,0 -1,0 -2,0c-3,0 -4,0 -6,0c0,0 -1,0 -3,0c-1,0 -2,0 -3,0c0,0 -2,-1 -2,-1c-1,0 -1,0 -4,0c-1,0 -2,-1 -3,-1c-1,0 -1,0 -2,0c-1,0 -2,0 -3,0c0,0 -1,0 -1,0c-1,0 -1,0 -2,0l0,0l-1,0" id="svg_34" stroke-opacity="0" stroke-width="1.5" stroke="#000000" fill="#f7f7f7"/>
  <path d="m491.5,379.5c0,1 0,1 0,3c0,1 0,1 0,1c0,1 0,2 0,2c0,1 -1,1 -1,1c0,1 0,1 0,1c0,1 0,2 0,2c0,1 0,2 0,2c0,0 0,1 0,2c0,0 0,1 0,1c0,1 0,1 0,2c0,0 0,1 0,2c0,0 0,0 0,1c0,1 0,2 0,3c0,0 0,0 0,1c0,1 0,1 0,2c0,0 0,1 0,1c0,1 0,1 0,2c0,1 0,1 0,1c0,1 0,2 0,2c0,0 0,2 0,2c0,0 0,1 0,2c0,0 0,0 0,1c0,1 0,1 0,2c0,0 0,1 0,1c0,1 0,1 0,2c0,1 0,1 0,1c0,1 0,2 0,2c0,1 0,2 0,2c0,0 0,1 0,2c0,0 0,1 1,2c0,0 0,0 0,1c0,0 0,1 0,2c0,0 0,0 0,1c0,1 0,1 0,2c0,1 0,1 0,1c-1,1 -1,2 -1,2c0,1 0,1 0,2c0,0 0,1 0,1c0,1 0,2 0,2c0,0 0,1 0,2c0,0 0,0 0,2c0,0 0,0 0,1c0,1 0,1 0,2c0,1 0,1 0,2c0,0 0,1 0,1c0,1 0,1 0,2c0,1 -1,1 -1,1c0,1 0,2 0,2c0,1 0,2 0,2c0,0 0,1 0,2c0,1 0,1 0,2c0,0 0,1 0,1c0,1 0,2 0,2c0,1 0,2 0,3c0,1 0,1 0,1c0,1 0,2 0,2c0,1 0,1 0,2c0,1 0,3 0,3c0,2 0,3 0,3c0,1 0,1 0,3c0,1 0,1 0,3c0,1 0,1 0,2c0,1 0,1 0,1c0,1 0,2 0,2c0,1 0,2 0,2c0,0 0,2 0,2c0,1 -0.292908,1.292908 -1,2c-0.707092,0.707092 0,1 0,2c0,1 0,1 0,1c0,1 -1,3 -1,4c0,0 0,1 0,1c0,1 0,1 0,2c0,0 0,1 0,2c0,0 0,0 0,1c0,1 0,1 0,2c0,1 0,1 0,2c0,0 0,1 0,1c0,1 0,1 0,2c0,0 0,1 -1,2c0,0 0,1 0,2c0,1 0,3 0,3c0,0 0,1 0,2c0,0 0,1 0,2c0,0 -1,2 -1,2c0,0 0,1 0,1c0,2 0,2 0,5c0,0 0,2 0,3c0,1 0,1 0,3c0,0 0,1 0,1c0,1 0,2 0,3c0,1 0,1 0,1c0,1 0,2 0,3c0,1 0,1 0,2c0,1 0,1 0,2c0,1 0,1 0,2c0,0 -0.38269,1.076111 0,2c0.541199,1.30658 0.292908,1.292908 1,2c0.707092,0.707092 2,1 2,1c1,0 2,0 2,0c1,0 1,0 2,0c0,0 0,0 1,0c1,0 0.292908,-0.292908 1,-1c0.707092,-0.707092 1.458801,0.30658 2,-1c0.38269,-0.923889 0,-1 0,-1c0,-1 0,-2 0,-2c0,-1 0,-1 0,-2c0,0 0,-1 0,-2c0,-1 0,-1 0,-2c0,-1 1,-1 1,-1c0,-1 0,-2 0,-2c0,-1 0,-1 0,-2c0,0 0,-1 0,-1c0,-1 0,-2 0,-2c0,0 0,-2 0,-2c0,0 0,-1 0,-2c0,0 0,0 0,-1c0,-1 0,-1 0,-2c0,0 0,-1 0,-2c0,0 0,-1 0,-2c0,0 0,0 0,-2c0,0 0,0 0,-1c0,-1 0,-2 0,-2c0,-1 0,-2 0,-2c0,0 0,-1 0,-2c0,0 0,-1 0,-2c0,0 0,0 0,-1c0,-1 0,-2 1,-3c0,0 0,-1 0,-1c0,-1 0,-2 0,-2c0,0 0,-1 0,-2c0,0 0,-1 0,-2c0,0 0,0 0,-1c0,-1 0,-2 0,-2c0,-1 0,-2 0,-2c0,0 0,-1 0,-2c0,0 0,0 0,-1c0,-1 0,-1 0,-2c0,-1 0,-1 0,-1c0,-1 0,-2 0,-2c0,-1 0,-1 0,-2c0,0 0,-1 0,-1c0,-1 0,-2 0,-2c0,0 0,-1 0,-2c0,0 0,-1 0,-2c0,0 0,-1 1,-3c0,0 0,-1 0,-2c0,0 0,0 0,-1c0,-1 0,-1 0,-2c0,0 0,-1 0,-2c0,0 0,-1 0,-2c0,0 0,-1 0,-2c0,0 0,-1 0,-2c0,0 0,-1 0,-2c0,0 0,-1 0,-1c0,-1 0,-1 0,-2c0,0 0,-1 0,-2c0,0 0,-1 0,-1c0,-1 0,-1 0,-1c0,-1 0,-2 0,-3c0,-1 0,-1 0,-1c0,-1 0,-2 0,-3c0,0 0,-1 0,-1c0,-1 0,-1 0,-2c0,-1 0,-1 0,-1c0,-2 0,-3 0,-4c0,0 0,-1 0,-2c0,0 0,-1 0,-2c0,-1 0,-1 0,-3c0,0 0,0 0,-1c0,-1 0,-1 0,-2c0,-1 0,-1 0,-1c0,-1 0,-2 0,-2c0,-1 0,-1 0,-2c0,0 0,-1 0,-1c0,-1 0,-2 0,-2c0,0 0,-1 0,-2c0,0 0,-1 0,-2c0,0 0,0 0,-1c0,-1 0,-1 0,-2c0,0 0,-1 0,-1c0,-1 0,-1 0,-2c0,-1 0,-1 0,-1c0,-1 0,-2 0,-2c0,-1 0,-2 0,-2c0,0 0,-1 0,-2c0,0 0,-1 0,-1c0,-1 0,-1 0,-2c0,0 0,-1 0,-2c0,0 0,0 0,-1c0,-1 0,-1 0,-2c0,-1 0,-1 1,-2c0,0 0,-1 0,-1c0,-2 1,-3 1,-3c0,-1 0,-2 0,-3c0,-1 0,-1 0,-1c0,-2 0,-2 1,-4c0,0 0,-2 0,-3c0,-1 0,-1 0,-2c0,0 0,0 0,-1c0,-1 0,-1 0,-2c0,-1 0,-1 0,-1c0,-1 0,-2 0,-2c0,-1 0,-1 0,-2c0,0 0,-2 -1,-2c-1,0 -0.292908,-0.292908 -1,-1c-0.707092,-0.707092 -1,0 -2,0c-1,0 -1,0 -2,0c0,0 -1,1 -1,1l-2,1l-1,0l-1,0" id="svg_33" stroke-opacity="0" stroke-width="1.5" stroke="#000000" fill="#e5e5e5"/>
  <path d="m469.5,565.5c0,0 -1,0 -1,0c-1,0 -1,0 -2,0c-1,0 -1,1 -2,1c-1,0 -1.292908,0.292908 -2,1c-0.707092,0.707092 -1,0 -1,0c-2,0 -1.693451,0.458801 -3,1c-0.923889,0.38269 -1.693451,0.458801 -3,1c-0.923889,0.38269 -1,0 -2,1c0,0 -1,0 -1,1c0,1 -1,1 -1,1c0,1 0,2 0,2c0,1 0,2 0,3c0,1 1,2 1,2c1,0 1.824432,0.0979 3,2c1.051453,1.701294 1,3 1,3c0,0 1,0 1,0c2,0 2,0 2,0c1,1 1,1 2,1c1,0 3,0 3,0c2,1 3,1 3,1c1,0 1,0 4,1c0,0 1,0 1,0c0,1 1,1 2,1c0,0 1,0 2,1c0,0 -0.306549,0.458801 1,1c0.923889,0.38269 0.693451,0.458801 2,1c0.923889,0.38269 1,1 2,2c0,0 -0.147278,1.173096 1,2c1.813995,1.307434 2,1 2,1c0,1 1,1 1,1c0,0 1,0 2,0c0,0 1,0 2,0c0,0 0,0 1,0c0,0 1,0 1,0c0,0 1,0 2,0c0,0 1,0 1,0c1,0 1,0 2,0c1,0 2.152252,-0.765381 4,0c1.306549,0.541199 1,1 1,1c1,0 2,0 2,0c1,0 1,0 2,0c0,0 2,0 3,0c1,0 2,0 2,0c0,0 1,0 2,0c0,0 1,0 2,0c0,0 0,0 1,0c1,0 1,0 2,0c0,0 0,0 1,0c0,0 0,0 1,0c1,0 1,0 2,0c2,0 2,0 4,0c0,0 0,-1 1,-1c1,0 1,-1 1,-1c1,0 1.292908,-0.292908 2,-1c0.707092,-0.707092 0,-1 1,-2c0,0 0,-1 0,-1c1,-1 2,-1 2,-1c0,-1 0,-1 0,-2c0,-1 0,-1 0,-1c0,-1 0,-2 0,-2c0,-1 0,-2 0,-2c0,-1 0,-1 -1,-2c0,0 0.707092,-0.292908 0,-1c-0.707092,-0.707092 -2,0 -3,0c0,0 -1,0 -2,0c0,0 -1,-1 -1,-1c0,0 -2,-1 -2,-1c-1,0 -1,-1 -1,-1c-1,0 -1.292908,-0.292908 -2,-1c-0.707092,-0.707092 0,-1 -1,-1c0,0 -1,-1 -1,-1c-3,-1 -4,-2 -5,-2c-1,0 -3,-1 -3,-1c-2,0 -2,0 -3,-1c0,0 -1.026764,-0.770264 -2,-1c-2.176239,-0.513733 -3,-1 -3,-2c0,0 0.306549,-1.458801 -1,-2c-0.923889,-0.38269 -1,-1 -1,-1c0,0 -1,-1 -1,-1c-1,-1 -1,-1 -4,-3c0,0 -1,0 -2,0c-2,0 -2,0 -3,0c0,0 -1,0 -2,0c0,0 -2,0 -2,0c-2,0 -2,0 -2,0c-1,0 -2,0 -2,0c-1,0 -2,0 -2,0c-1,0 -2,0 -3,0c0,0 -0.458801,-0.30658 -1,1c-0.38269,0.923889 -1.076111,0.61731 -2,1c-1.306549,0.541199 -2,2 -2,2c-1,0 -1,1 -1,1l0,1l-1,0l-1,0" id="svg_32" stroke-opacity="0" stroke-width="1.5" stroke="#000000" fill="#e5e5e5"/>
  <path d="m252.5,539.5c0,0 -0.026749,-0.229736 -1,0c-2.176254,0.513733 -7,1 -10,1c-1,0 -4.10701,0.919006 -8,0c-2.176254,-0.513733 -3,-1 -5,-1c-2,0 -3,0 -5,0c-1,0 -1,0 -2,0c-1,0 -1.486252,-0.17627 -2,2c-0.229752,0.973267 -0.458801,1.69342 -1,3c-1.148056,2.771667 0,6 0,8c0,2 -0.5112,5.222168 1,8c3.059952,5.624634 4.972519,6.647522 6,11c0.229752,0.973267 0.61731,1.076111 1,2c0.541199,1.30658 2,2 4,2c2,0 4,0 6,1c0,0 0.152237,-0.765381 2,0c1.306564,0.541199 3,2 3,2c2,0 3,1 4,1c1,0 2.009735,0.802917 4,1c5.074203,0.502441 8,1 11,1c2,0 2.549164,0.955139 6,2c2.871277,0.869324 7.878571,0.493469 11,1c1.974182,0.320374 3,0 3,0c2,0 5,0 8,0c1,0 2,0 2,0c1,0 4,-2 8,-2c4,0 7.585785,0.414185 9,-1c0.707092,-0.707092 1.007507,-1.877808 2,-2c4.092224,-0.503784 5,-2 6,-3c0,0 1,-1 1,-1c1,0 0.881531,-1.190308 4,-3c1.93399,-1.122314 2.549164,-2.955139 6,-4c0.957092,-0.289795 2.458801,-0.69342 3,-2c0.765381,-1.847778 2.493469,-4.87854 3,-8c0.160187,-0.987061 1.486267,-1.82373 2,-4c0.459503,-1.946472 0,-4 0,-5c0,-2 0,-3 0,-3c0,-2 -1.852722,-5.173096 -3,-6c-1.813995,-1.307434 -4,-2 -5,-2c-2,0 -7,-1 -11,-1c-8,0 -12,0 -15,0c-1,0 -2,0 -10,0c-8,0 -11,0 -14,0c-1,0 -4.072174,0.756409 -8,0c-5.287994,-1.018372 -8,-2 -10,-2c-1,0 -2,0 -4,0c0,0 0.306564,0.458801 -1,1c-0.923874,0.38269 -3.412079,-1.031433 -7,1c-1.230652,0.696777 -2,1 -4,1c-1,0 -8,1 -11,1l-2,1" id="svg_31" stroke-opacity="0" stroke-width="1.5" stroke="#000000" fill="#e5e5e5"/>
  <path d="m323.5,587.5c0,0 0.176239,0.486267 -2,1c-0.973236,0.229736 -1,1 -1,1c0,1 0,1 0,1c0,1 -2.38269,2.076111 -2,3c0.541199,1.30658 1,1 1,2c0,0 0,1 0,2c0,1 1,2 1,2c1,1 1,2 1,2c0,0 1,1 1,1c0,1 0.61731,1.076111 1,2c0.541199,1.30658 2,1 2,1c1,1 0.693451,1.458801 2,2c0.923889,0.38269 3,1 3,1c0,0 1.292908,-0.707092 2,0c0.707092,0.707092 0.076111,0.61731 1,1c1.306549,0.541199 1,1 1,1c1,0 2,0 2,0c1,0 1.693451,0.458801 3,1c0.923889,0.38269 1,0 2,0c0,0 1,0 1,0c1,0 1,0 3,0c1,0 3,0 4,0c1,0 1,0 2,0c0,0 1.292908,0.707092 2,0c0.707092,-0.707092 0,-1 2,-1c1,0 3,0 3,0c0,0 1,0 2,0c0,0 2,0 2,0c0,0 1,0 1,0c1,0 1,0 2,0c1,0 1,0 1,0c1,0 2,0 2,0c1,0 2,0 2,0c1,0 1,0 2,0c1,0 1,0 2,0c1,0 2,0 3,0c0,0 0,0 2,0c3,0 3,0 4,0c1,0 1,0 1,0c1,0 2,0 3,0c1,0 1.292908,0.707092 2,0c0.707092,-0.707092 1,-1 1,-1c0,0 1,0 1,0c0,0 2,0 2,0c1,0 2,0 2,0c0,0 2,0 2,0c0,0 1,0 3,0c1,0 2,0 2,0c3,0 7,0 8,0c2,0 3,0 5,0c0,0 1,0 2,0c3,0 5,0 6,0c0,0 0,0 1,0c1,0 1,0 2,0c1,0 1,0 1,0c1,1 2,1 2,1c1,0 1,0 2,0c0,0 1,0 1,0c1,0 2,0 2,0c0,0 2,0 2,0c1,0 2,0 2,0c0,0 1,0 2,0c0,0 1,0 1,0c1,0 1,0 2,0c0,0 1,0 2,0c0,0 0,0 1,0c1,0 1,0 1,0c2,0 5,0 5,0c1,0 2,0 2,0c2,0 4,0 5,0c0,0 1,0 1,0c1,0 2,0 2,0c1,0 2,0 2,0c1,-1 2,-1 2,-1c1,0 2,0 2,0c1,0 1,0 2,0c0,0 1.076111,0.38269 2,0c1.306549,-0.541199 2,-1 3,-1c1,0 2,0 2,0c1,0 1.823761,-0.486267 4,-1c0.973236,-0.229736 2,0 3,0c1,0 1,-1 1,-1c2,-1 1.292908,-1.292908 2,-2c0.707092,-0.707092 1,-1 2,-2c0,0 0.292908,-0.292908 1,-1c0.707092,-0.707092 1,-1 1,-1c0,0 0,-1 0,-2c0,0 -1,-1 -1,-2c0,0 -1,0 -1,0c0,0 -1,-1 -1,-1c0,0 -1,-1 -1,-1c0,0 0,-1 -1,-1c0,0 -1,-1 -2,-1c0,0 0,0 -1,0c-1,0 -1,0 -2,0c-1,0 -1,0 -1,0c-1,0 -2,0 -2,0c-1,0 -2,0 -5,0c-1,0 -3,0 -5,0c-1,0 -4,0 -12,0c-7,0 -12,0 -15,0c-2,0 -7,0 -16,0c-10,0 -16,0 -20,0c0,0 -2,0 -4,0c-4,0 -7,0 -9,0c0,0 -1,0 -2,0c-1,0 -4,0 -7,0c-2,0 -4,0 -5,0c-2,0 -2,0 -3,0c-1,0 -2.152252,-0.234619 -4,-1c-1.306549,-0.541199 -1.053497,-0.540466 -3,-1c-2.176239,-0.513733 -6,-1 -8,-1c-1,0 -1.693451,-0.458801 -3,-1c-0.923889,-0.38269 -4,0 -5,0c-1,0 -2,0 -2,0c-2,0 -2.041321,0.152771 -6,-1c-3.036163,-0.884155 -4,-1 -5,-1c0,0 -1,0 -5,0c-3,0 -5,0 -5,0c0,0 -1,0 -2,0c0,0 -0.292908,0.292908 -1,1c-0.707092,0.707092 -1.292908,-0.707092 -2,0c-0.707092,0.707092 -1,2 -2,3c0,0 0,1 -1,2c0,0 0,1 0,2l0,0" id="svg_30" stroke-opacity="0" stroke-width="1.5" stroke="#000000" fill="#e5e5e5"/>
  <path d="m227.5,580.5c-1,0 -1.014984,-0.244385 -3,0c-4.092209,0.503784 -9,2 -12,2c-3,0 -4,0 -7,0c-7,0 -12,0 -19,0c-4,0 -6,0 -7,0c-4,0 -8,0 -9,0c-2,0 -4,0 -7,0c-1,0 -5,0 -7,0c-6,0 -10,0 -13,0c-3,0 -5,0 -6,0c-2,0 -5,0 -7,0c-1,0 -2,0 -3,0c-2,0 -5.228363,-1.148071 -8,0c-1.306564,0.541199 -3,1 -5,1c-2,0 -3.878555,0.493469 -7,1c-1.974174,0.320374 -4,1 -4,1c-3,0 -3,0 -3,0c-1,0 -1,0 -2,0c-1,0 -2,0 -3,0c-1,0 -2,1 -4,1c-1,0 -1.292892,0.292908 -2,1c-0.707108,0.707092 -1,1 -1,1c0,0 -0.292892,0.292908 -1,1c-0.707108,0.707092 -1,0 -3,0c0,0 -1,0 -1,1c0,0 0,0 0,1c0,0 0,1 0,1c0,0 0,1 0,1c0,1 0,2 0,2c0,0 0,1 0,2c0,0 0,0 0,2c0,0 0,0 1,1c0,0 0,0 1,1c0,0 0,1 1,3c0,0 0.617317,0.076111 1,1c0.541199,1.30658 1,1 2,1c0,0 1,0 2,0c0,0 0,0 1,0c1,0 1,0 2,0c1,0 1,0 1,0c1,0 2,0 2,0c1,0 1,0 2,0c0,0 1.026749,0.229736 2,0c2.176254,-0.513733 4,-1 5,-1c0,0 2,0 3,0c1,0 2,0 2,0c1,0 2,0 2,0c1,0 2,0 4,0c0,0 0.152245,-0.765381 2,0c1.306564,0.541199 1,1 2,1c0,0 1,0 1,0c1,0 2,0 3,0c1,0 1,0 2,0c1,0 1,0 4,1c0,0 1.693436,1.458801 3,2c0.923874,0.38269 2,0 3,0c1,0 3.823746,0.486267 6,1c2.919754,0.68927 3,1 3,1c1,0 3.080246,-0.68927 6,0c2.176254,0.513733 3,1 3,1c0,0 1.053497,-0.459534 3,0c2.176254,0.513733 4,1 4,1c1,0 1,0 3,0c0,0 1,1 2,1c2,0 3,0 6,0c1,0 3,1 5,1c2,0 2,0 3,0c1,0 1.823746,0.486267 4,1c2.919754,0.68927 5,0 6,0c0,0 1,0 2,0c2,0 5,0 5,0c1,0 2,0 2,0c1,0 2,0 3,0c0,0 1,0 2,0c0,0 3,0 3,0c1,0 2,0 2,0c2,0 5,-1 5,-1c0,0 1.186005,0.307434 3,-1c1.147263,-0.826904 2,-1 2,-1c1,0 1.796997,-0.256531 3,-1c2.689987,-1.662537 3,-1 3,-1c2,-1 2.693436,-2.458801 4,-3c0.923874,-0.38269 2,0 4,-2c1,-1 1.292892,-2.292908 2,-3c0.707108,-0.707092 2.458801,-1.69342 3,-3c0.38269,-0.923889 2,-3 2,-3c1,-2 1,-3 2,-5c0,0 0,-1 0,-3c0,-1 0,-1 0,-1c0,-1 -1,-2 -2,-2c0,0 -3,-1 -5,-1c-2,0 -2,-1 -3,-1c-1,0 -2,-1 -2,-1c-1,0 -1.292892,0.707092 -2,0c-0.707108,-0.707092 -1.076126,-0.61731 -2,-1c-1.306564,-0.541199 -1,-1 -1,-1c-1,0 -1.026749,0.229736 -2,0c-2.176254,-0.513733 -2,-1 -2,-1c-1,-1 -2,-1 -2,-1c-3,0 -3,0 -3,0c-2,0 -3,0 -4,0c-2,0 -3,0 -5,0c-1,0 -1,0 -3,0c-3,0 -5,0 -6,0c-1,0 -2,0 -4,0c-3,0 -9,0 -13,0c-2,0 -5,0 -9,0c-6,0 -10.823746,0.486267 -13,1c-0.973251,0.229736 -2,0 -3,0c-1,0 -2,0 -5,0c-1,0 -2,0 -2,1c0,0 -3.053497,0.540466 -5,1c-2.176254,0.513733 -3.080246,0.31073 -6,1c-2.176254,0.513733 -5,1 -5,1l-1,0" id="svg_29" stroke-opacity="0" stroke-width="1.5" stroke="#000000" fill="#e5e5e5"/>
  <path d="m214.5,397.5c-1,0 -1,0 -1,0c-1,0 -2,0 -2,0c-1,0 -1,0 -2,0c-1,0 -2,0 -2,0c-1,0 -2,0 -3,0c0,0 -1,0 -1,0c-1,0 -2.458801,-0.306549 -3,1c-0.38269,0.923889 0,1 0,2c0,1 0,3 0,5c0,1 0,4 0,6c0,2 0,4 0,7c0,1 0,2 0,4c0,2 0,5 0,7c0,3 0,4 0,6c0,3 0.493454,4.878571 1,8c0.160187,0.987091 0.493454,2.878571 1,6c0.480545,2.961273 0.540497,5.053497 1,7c0.513748,2.176239 1.493454,3.878571 2,7c0.160187,0.987091 2,5 2,6c0,1 1,2 2,3c1,1 1.693436,2.458801 3,3c0.923874,0.38269 4.054138,0.432678 7,1c5.287994,1.018372 8.934143,2.144287 11,3c2.92157,1.210144 6,1 8,1c3,0 3.053497,-0.459503 5,0c2.176254,0.513733 7,1 8,1c6,0 11,0 18,0c9,0 18.958466,-1.499237 28,-2c4.99234,-0.276489 8,-1 9,-2c0,0 1,0 4,0c8,0 11,0 13,0c0,0 3.012909,0.160187 4,0c3.121429,-0.506531 10,-2 13,-2c2,0 2.053497,0.459503 4,0c2.176239,-0.513733 5.096619,-1.533752 11,-3c3.069031,-0.762268 6.415283,-2.188751 7,-3c1.84903,-2.565369 4.726501,-2.29361 9,-6c3.777283,-3.276001 7,-5 8,-8c1,-3 1.486267,-5.823761 2,-8c0.68927,-2.919739 0,-6 0,-9c0,-3 0.765381,-4.152252 0,-6c-0.541199,-1.306549 -1,-2 -1,-3c0,-2 0,-5 0,-7c0,-2 0,-3 0,-5c0,-2 0.320374,-3.025818 0,-5c-0.506531,-3.121429 -1,-4 -1,-5c0,-2 -0.458801,-2.693451 -1,-4c-0.38269,-0.923889 -1,-2 -1,-2c0,-1 -1.353638,-1.236969 -2,-2c-3.931732,-4.641266 -9,-2 -12,-2c-1,0 -3,0 -5,0c-1,0 -7,0 -11,0c-2,0 -2,0 -3,0c-1,0 -2.106995,-0.919006 -6,0c-2.176239,0.513733 -3.076111,0.61731 -4,1c-1.306549,0.541199 -3,1 -3,1c-4,2 -4.053497,1.540497 -6,2c-2.176239,0.513733 -3,1 -5,1c-2,0 -7,1 -10,1c-3,0 -6,0 -9,0c-3,0 -4,0 -7,0c-2,0 -4,0 -6,0c-2,0 -3,0 -6,0c-1,0 -3,0 -5,0c-2,0 -5,0 -8,0c-3,0 -4,0 -5,0c-3,0 -9.025818,-0.679626 -11,-1c-3.121445,-0.506531 -2.902832,-1.224213 -5,-2c-3.867004,-1.430481 -7.153778,-0.462891 -15,-3c-5.123947,-1.65686 -8,-3 -10,-4c-2,-1 -4,-2 -5,-2c0,0 -3,0 -4,0c-6,0 -9,0 -9,0c-1,0 -3,0 -5,0c-3,0 -3,0 -5,0l-1,0l-1,0l-1,0" id="svg_28" stroke-opacity="0" stroke-width="1.5" stroke="#000000" fill="#e5e5e5"/>
  <path d="m179.5,344.5c-1,0 -1,0 -2,0c-1,0 -1,0 -1,0c-1,-1 -2,-1 -3,-2c0,0 -1,-1 -1,-1c0,0 -1.292892,0.707092 -2,0c-0.707108,-0.707092 -1,-1 -1,-1c0,-1 -1,-1 -2,-1c0,0 -1,0 -1,-1c0,0 -1,0 -1,0c0,0 -1,-1 -1,-1c-1,0 -1.292892,-0.292908 -2,-1c-0.707108,-0.707092 -0.693436,-0.458801 -2,-1c-0.923874,-0.38269 -2,0 -2,0c-1,-1 -1,-1 -2,-1c-1,0 -1,0 -2,-1c0,0 -2,0 -3,0c0,0 -1,0 -2,0c0,0 0,0 -2,0c0,0 -0.292892,0.707092 -1,0c-0.707108,-0.707092 0,-1 -1,-1c0,0 -0.292892,-0.292908 -1,-1c-0.707108,-0.707092 -1.292892,-0.292908 -2,-1c-0.707108,-0.707092 -2,0 -2,-1c0,0 -1,0 -1,0c-1,0 -1,0 -2,0c0,0 -1,0 -1,0c-1,0 -2,0 -2,0c-1,1 -1,1 -2,1c0,0 -1,0 -2,0c0,0 0,0 -2,0c0,0 -3.076118,-0.38269 -4,0c-1.306564,0.541199 -1,1 -1,2c0,1 0,2 0,2c0,0 -1,1 -1,1c-1,1 -3,3 -3,3c0,0 -3,2 -3,2c-1,1 -0.292892,1.292908 -1,2c-0.707108,0.707092 -1,0 -1,1c0,1 -0.458801,0.693451 -1,2c-0.382683,0.923889 -2,2 -2,3c0,0 0,0 -1,1c-1,1 -1,2 -1,2c0,1 -1,1 -1,2c0,0 0,1 0,1c-1,1 -1,1 -1,1c0,1 0,1 0,2c0,1 0,1 0,1c0,1 0,2 0,2c0,0 0,2 0,2c0,0 0,1 0,2c0,0 0,0 0,1c0,1 -1,1 -1,2c0,0 0,0 0,1c0,0 0,1 0,1c1,0 1,1 1,1c1,1 0.617317,1.076111 1,2c0.541199,1.306549 1,1 1,2c0,0 0,0 0,1c0,0 0,1 1,2c0,0 1,0 1,1c0,1 0.458801,0.693451 1,2c0.382683,0.923889 0.076118,1.61731 1,2c1.306564,0.541199 1,1 1,2c0,0 1,2 1,3c0,0 0,1 0,1c0,1 0.617317,1.076111 1,2c0.541199,1.306549 1,2 1,2c0,0 0.292892,0.292908 1,1c0.707108,0.707092 0,1 0,1c0,1 1,1 1,1c0,2 0.292892,1.292908 1,2c0.707108,0.707092 0.292892,1.292908 1,2c0.707108,0.707092 1.458801,1.693451 2,3c0.382683,0.923889 0.292892,2.292908 1,3c0.707108,0.707092 1,1 1,1c0,1 1,1 1,1c0,1 1,2 1,2c1,1 1.292892,2.292908 2,3c0.707108,0.707092 0.61731,0.076111 1,1c0.541199,1.306549 0.292892,1.292908 1,2c0.707108,0.707092 0.292892,0.292908 1,1c0.707108,0.707092 2.585785,-1.414215 4,0c0.707108,0.707092 0.292892,1.292908 1,2c0.707108,0.707092 0,1 0,1c0,1 0,1 0,1c1,1 1,1 1,2c0,0 0,0 1,1c1,1 1,1 1,2c0,0 1,0 1,1c0,0 0,1 0,2c0,0 0,0 0,2c0,0 0,1 1,2c0,0 0,1 1,1c1,0 1,0 2,0c1,0 1,0 2,1c0,0 0,1 0,3c0,1 0,1 0,2c0,0 0,1 1,2c0,0 0,1 0,2c0,1 0.458801,0.693451 1,2c0.38269,0.923889 1,2 1,2c1,1 2,2 2,2c1,0 1,1 1,1c1,0 1,1 1,1c1,0 1,1 1,1c0,1 0,1 0,2c0,0 0,1 0,1c1,1 1,2 1,2c0,0 0,1 0,2c0,0 0,0 1,2c0,0 0.458801,-0.306549 1,1c0.38269,0.923889 0,1 0,1c0,1 0,2 0,2c0,1 0,1 0,2c0,0 0,1 0,1c0,1 0.458801,1.693451 1,3c0.38269,0.923889 0,1 0,2c0,0 0,1 0,2c0,2 0,2 0,2c0,2 0,2 0,4c0,1 0,2 0,3c0,1 0,2 0,2c1,0 1,1 3,2c0,0 0,1 1,2c1,1 1.097885,2.824432 3,4c0.850647,0.525726 2.693436,1.458801 4,2c0.923874,0.38269 2,1 3,1c1,0 2.907791,0.496216 7,1c1.985016,0.244354 3,0 5,0c2,0 4.025818,0.679626 6,1c3.121445,0.506531 4,1 5,1c1,0 2,0 3,0c0,0 1,0 2,0c1,0 2,0 2,-1c0,0 1.076126,0.38269 2,0c1.306564,-0.541199 3.292892,-1.292908 4,-2c0.707108,-0.707092 1,-1 2,-2c0,0 1,-1 1,-1c1,0 1,0 1,-1c0,0 0.292892,-1.292908 1,-2c0.707108,-0.707092 0.292892,-1.292908 1,-2c0.707108,-0.707092 1,-1 2,-2c0,0 0,-2 0,-2c1,-1 1,-2 1,-2c0,-1 0,-1 0,-2c0,-1 0,-1 0,-2c0,-1 -0.486252,-0.823761 -1,-3c-0.229752,-0.973236 -1,-1 -1,-1c0,-1 -1,-1 -1,-2c0,0 -1,-1 -1,-1c0,-1 0,-2 0,-2c0,-1 0.38269,-1.076111 0,-2c-0.541199,-1.306549 -1,-2 -1,-3c0,0 0.38269,-0.076111 0,-1c-0.541199,-1.306549 -1,-2 -1,-2c0,-1 0,-2 0,-2c0,-1 -1,-2 -1,-2c0,-1 0,-2 0,-2c0,0 0,-1 0,-2c0,0 0,0 0,-1c0,-1 0,-1 0,-2c0,0 0,-1 0,-1c0,-1 0,-1 -1,-2c0,0 0,0 0,-1c0,0 0,-1 0,-2c0,0 -0.486252,0.176239 -1,-2c-0.229752,-0.973236 0,-1 0,-1c0,-1 0,-1 0,-2c0,0 0,-1 0,-1c0,-1 0,-1 0,-2c0,0 0,0 0,-1c0,0 0,-1 0,-2c0,0 0,0 0,-1c0,-1 0,-1 0,-2c0,-1 -1,-2 -1,-2c0,-1 0,-1 0,-2c0,0 0,-1 0,-2c0,0 0,0 0,-1c0,-1 0,-1 0,-2c0,-1 0,-1 0,-1c0,-1 0,-3 0,-3c0,-1 0,-2 0,-2c0,0 0,-1 0,-2c0,0 0,-1 0,-1c0,-1 0,-1 0,-2c0,0 -0.458801,-0.693451 -1,-2c-0.38269,-0.923889 0,-2 0,-2c0,-1 -1,-2 -1,-2c0,-1 -1,-1 -1,-2c0,0 0,-1 0,-1c0,0 0,-1 1,-2c0,0 1,0 2,1c0,0 0,0 1,0c1,0 1,0 2,0c1,0 1,0 1,0c1,0 2,0 2,0c1,0 2,0 2,0c0,1 1,2 3,2c1,0 3,1 4,3c0,0 0.693436,0.458801 2,1c1.847763,0.765381 3.076126,0.61731 4,1c1.306564,0.541199 1,1 1,1c1,0 2,0 2,0c1,0 1,0 3,0c0,0 1,0 2,0c1,0 2.292892,-0.707092 3,0c0.707108,0.707092 0.693436,1.458801 2,2c0.923874,0.38269 2,0 2,0c0,0 1,0 2,0c0,0 1,0 2,2c0,0 1,0 1,0c2,0 2,0 3,0c1,0 2,0 4,0c0,0 1,0 2,0c0,0 0,0 1,0c1,0 1.292908,-0.707092 2,0c0.707092,0.707092 1,1 1,1c2,0 4,1 5,1c0,0 0,0 1,0c1,0 1,0 2,0c0,0 1,0 1,0c1,0 0.693451,0.458801 2,1c0.923889,0.38269 1,0 1,0c1,0 2,0 2,0c1,0 1.292908,0.292908 2,1c0.707092,0.707092 1,0 2,0c2,0 3,0 4,0c0,0 1,0 2,0c1,0 3,0 4,0c1,0 2,0 2,0c0,0 1,0 2,0c0,0 1,0 2,0c0,0 0,0 1,0c1,0 1,0 4,0c0,0 0,0 1,0c1,0 2,0 4,0c1,0 1,0 2,0c0,0 1,0 3,0c3,0 3,0 3,0c1,0 2,0 4,0c1,0 1,0 2,0c0,0 1,0 3,0c0,0 0,0 2,0c1,0 1.292908,-0.292908 2,-1c0.707092,-0.707092 1.076111,0.38269 2,0c1.306549,-0.541199 2,-1 2,-1c1,0 1,0 1,0c1,0 1,0 2,0c1,0 2,0 2,0c1,0 1,0 2,-1c0,0 1.076111,0.38269 2,0c1.306549,-0.541199 1,-1 1,-1c1,-1 2,-1 4,-1c0,0 0.292908,-0.292908 1,-1c1.414215,-1.414215 2,-1 3,-1c0,0 0,-1 1,-1c1,0 2,-1 2,-1c1,0 1.292908,-0.292908 2,-1c0.707092,-0.707092 1,1 1,1c0,0 0,1 0,1c0,1 0,2 0,2c0,0 0,1 0,2c0,0 0,0 0,2c0,0 -0.458801,-0.306549 -1,1c-0.38269,0.923889 -1,2 -1,2c0,1 0,1 0,1c-1,1 -1,2 -1,3c0,0 0,1 0,2c0,0 0,0 -1,1c0,0 0,0 0,1c0,0 0,1 0,2c0,0 0,0 0,1c0,1 0,1 0,2c0,0 0,1 0,1c0,1 0,1 0,3c0,1 0,1 0,2c0,0 0,1 0,1c0,1 0,2 1,3c0,0 0,0 0,1c0,0 0.486267,-0.176239 1,2c0.229767,0.973236 0,1 0,2c0,1 0,1 0,1c0,1 0,2 0,2c0,1 0,2 0,2c0,0 0,1 0,2c0,0 0,1 0,1c0,1 0,1 0,2c0,1 0.38269,1.076111 0,2c-0.541199,1.306549 -1,2 -1,2c0,0 0,1 -1,2c0,0 0,0 0,2c0,0 0,0 0,1c0,1 0,1 0,1c0,1 0,2 0,2c0,1 0,1 0,2c0,1 -0.486267,0.823761 -1,3c-0.68927,2.919739 0.38269,3.076111 0,4c-0.541199,1.306549 -1,1 -1,2c0,0 0,1 0,2c0,1 0,2 0,3c0,1 0,3 0,6c0,0 0,1 0,1c0,1 0,2 0,2c1,1 1,1 2,2c0,0 0,0 2,0c0,0 0,0 1,0c1,0 2,0 4,0c0,0 0,0 1,0c1,0 1,0 2,-1c0,0 1.076111,0.38269 2,0c1.306549,-0.541199 1,-1 2,-1c0,0 1.076111,0.38269 2,0c1.306549,-0.541199 1,-1 1,-1c1,0 1,0 3,0c0,0 0,-1 1,-1c1,0 1,0 2,0c1,0 2,0 3,0c1,0 2,0 3,0c0,0 1,0 5,-2c0,0 0.693451,-0.458801 2,-1c1.847748,-0.765381 5.080261,-0.31073 8,-1c2.176239,-0.513733 2.906342,-1.103394 4,-2c2.78833,-2.285889 4.372009,-1.385101 8,-4c1.147278,-0.826904 2,-1 3,-1c0,0 0,-1 1,-2c0,0 0,0 1,-1c0,0 0,-1 0,-2c0,-1 0,-1 0,-2c0,0 -0.38269,-0.076111 0,-1c0.541199,-1.306549 0.61731,-1.076111 1,-2c0.541199,-1.306549 1,-1 1,-1c0,-1 1,-2 2,-3c0,0 0,-1 0,-1c1,-1 0.61731,-1.076111 1,-2c0.541199,-1.306549 1,-1 1,-2c0,0 1,0 1,-1c0,0 0,-1 0,-1c0,0 0,-1 0,-2c0,0 0,-1 1,-1c0,0 0,-1 1,-1c0,0 0,-1 0,-2c0,0 -0.38269,-0.076111 0,-1c0.541199,-1.306549 1,-2 1,-3c0,0 0,-1 0,-1c1,-1 1,-2 1,-2c0,0 0,-1 0,-2c0,0 0,0 0,-2c0,0 0,0 0,-1c0,-1 1,-2 1,-2c0,-1 0,-2 1,-2c0,0 0,-1 0,-1c0,-1 0,-1 0,-1c2,-1 2,-2 2,-2c0,-1 1,-2 1,-2c0,-1 1,-1 1,-2c0,0 1,-1 3,-3c0,0 0,-1 0,-2c0,0 1,-1 1,-1c0,-1 0,-2 0,-2c0,0 0,-1 0,-2c0,0 0,-1 0,-2c0,0 0,0 0,-1c0,-1 -0.707092,-1.292908 0,-2c0.707092,-0.707092 1,-1 1,-1c0,-1 0,-1 1,-2c0,0 0,-1 0,-2c0,0 0,-1 0,-1c1,-1 1,-1 1,-2c0,0 1,-1 1,-2c0,-1 1,-2 2,-3c0,0 -0.707092,-1.292908 0,-2c0.707092,-0.707092 1,0 1,-1c0,0 1,0 1,-1c0,0 1,-1 1,-2c0,0 0.458801,0.306549 1,-1c0.38269,-0.923889 -0.707092,-1.292908 0,-2c0.707092,-0.707092 1,-1 1,-1c0,-1 0.458801,-0.693451 1,-2c0.38269,-0.923889 0,-1 0,-2c0,-1 1,-1 1,-1c0,-1 0.458801,-1.693451 1,-3c0.765381,-1.847748 0,-2 1,-3c0,0 0.458801,-0.693451 1,-2c0.38269,-0.923889 -0.38269,-1.076111 0,-2c0.541199,-1.306549 1,-2 1,-3c0,-1 1,-1 1,-1c0,-1 0.292908,-1.292908 1,-2c0.707092,-0.707092 0,-1 0,-2c0,0 0,-1 0,-1c0,-1 0,-2 0,-2c0,-1 0,-2 0,-3c0,-1 0,-1 0,-1c1,-1 1,-2 1,-3c0,0 0,-1 0,-2c0,-1 0,-2 0,-2c0,0 0,-1 0,-1c0,0 0,-1 0,-1c0,-1 0,-2 0,-2c0,0 0,-1 0,-2c0,-1 0,-2 0,-2c0,-1 -0.292908,-1.292908 -1,-2c-0.707092,-0.707092 0,-2 0,-3c0,0 0,-1 0,-1c0,-1 0,-1 -1,-2c-1,-1 -1,-1 -1,-1c0,-1 -0.458801,-1.693451 -1,-3c-0.38269,-0.923889 -0.292908,-1.292908 -1,-2c-0.707092,-0.707092 -1,0 -1,-1c0,0 -1,-1 -1,-1c0,0 -1.292908,-1.292908 -2,-2c-0.707092,-0.707092 -0.693451,-1.458801 -2,-2c-0.923889,-0.38269 -2,-1 -2,-1c0,0 -1,-1 -2,-1c0,0 -0.292908,-0.292908 -1,-1c-0.707092,-0.707092 -1.076111,0.38269 -2,0c-1.306549,-0.541199 -2,-2 -2,-2c-1,0 -2,0 -2,0c-1,0 -2,0 -2,0c-1,0 -2,0 -2,0c-1,0 -2.292908,0.292908 -3,1c-1.414215,1.414215 -2,0 -2,0c-1,0 -1.693451,0.458801 -3,1c-0.923889,0.38269 -1.292908,-0.707092 -2,0c-0.707092,0.707092 0,1 -2,2c0,0 -1,1 -1,1c-1,0 -1,1 -2,1c-1,0 -1,1 -1,1c-1,0 -2,0 -2,0c-1,0 -1.292908,-0.707092 -2,0c-0.707092,0.707092 -1,1 -1,1c-1,0 -2,0 -2,0c0,0 -1,1 -1,1c0,0 -2.292908,-0.707092 -3,0c-0.707092,0.707092 -0.026764,0.770233 -1,1c-2.176239,0.513733 -1.693451,1.458801 -3,2c-0.923889,0.38269 -0.292908,0.292908 -1,1c-0.707092,0.707092 -1.292908,0.292908 -2,1c-0.707092,0.707092 -1,0 -3,1c0,0 -1,1 -2,1c-1,0 -1,1 -2,1c0,0 -1.076111,0.61731 -2,1c-1.306549,0.541199 -3,1 -4,2c0,0 -2,0 -2,1c0,0 -1,0 -1,0c0,0 -0.693451,1.458801 -2,2c-0.923889,0.38269 -0.693451,0.458801 -2,1c-0.923889,0.38269 -0.693451,0.458801 -2,1c-0.923889,0.38269 -0.292908,0.292908 -1,1c-0.707092,0.707092 -2,0 -3,1c-1,1 -2,1 -2,2c0,0 -1,0 -1,0c-1,0 -2,1 -3,1c0,0 -1,1 -1,1c-2,1 -3.458801,0.693451 -4,2c-0.38269,0.923889 -1.292908,0.292908 -2,1c-0.707092,0.707092 -1,2 -1,2c-1,0 -0.823761,0.486267 -3,1c-1.946503,0.459503 -4.076111,1.61731 -5,2c-5.226257,2.164795 -6.186005,4.692535 -8,6c-1.147278,0.826904 -1.881531,1.190277 -5,3c-1.93399,1.122345 -3,1 -4,2c0,0 -1,0 -3,0c-1,0 -4,0 -7,0c-4,0 -9,0 -13,0c-3,0 -6,1 -8,1c-3,0 -6,0 -10,0c-4,0 -9,0 -12,0c-2,0 -3.897003,-0.538727 -13,-2c-9.922836,-1.592896 -12.823746,-1.486267 -15,-2c-0.973251,-0.229767 -2.934143,-1.144287 -5,-2c-2.92157,-1.210144 -3.868286,-1.288574 -8,-3c-2.92157,-1.210144 -6.757111,-2.986908 -13,-4c-1.974182,-0.320374 -2.474274,-0.149353 -3,-1c-1.175568,-1.9021 -5.878555,-2.493469 -9,-3c-3.948349,-0.640717 -7.292892,-0.292908 -8,-1c-0.707108,-0.707092 -2.504318,-0.593994 -7,-3c-1.246872,-0.667297 -5.076126,-1.61731 -6,-2c-1.306564,-0.541199 -2,-1 -3,-1c0,0 -1,-1 -1,-1c0,0 -1.292892,-0.292908 -2,-1c-0.707108,-0.707092 0,-1 -1,-1c0,0 0,0 -2,0l0,0l0,0" id="svg_27" stroke-opacity="0" stroke-width="1.5" stroke="#000000" fill="#f7decd"/>
  <path d="m205.5,243.5c0,0 -1,0 -1,0c0,0 -1,0 -2,0c0,0 -1,0 -2,0c0,0 0,0 -1,0c-1,0 -1.292892,-0.707108 -2,0c-0.707108,0.707108 -1,1 -1,1c-1,0 -1,0 -2,0c0,0 0,0 -1,0c0,0 -1,0 -2,0c0,0 0,1 -1,1c-1,0 -1,0 -2,0c-1,0 -1,1 -1,1c-1,0 -1,0 -2,1c0,0 -1,0 -2,0c0,0 -1,0 -2,0c0,0 -1,0 -1,0c-1,0 -1,0 -2,0c0,0 -1,0 -1,0c0,0 -1,0 -1,0c-1,0 -1.292892,0.292892 -2,1c-0.707108,0.707108 -1.693436,0.458801 -3,1c-0.923874,0.38269 -1,0 -4,0c0,0 -1,0 -2,0c-1,0 -1,0 -4,1c0,0 -1,0 -1,0c-1,0 -2,0 -3,1c0,0 -1,0 -2,0c0,0 0.306564,0.458801 -1,1c-1.847763,0.765366 -2,0 -3,1c0,0 -1,1 -1,1c-1,0 -1.292892,0.292892 -2,1c-0.707108,0.707092 0,1 0,1c0,1 -0.486252,0.823761 -1,3c-0.229752,0.973236 -1,1 -1,2c0,1 -1,1 -1,1c0,1 -1,1 -1,2c0,0 -1,0 -1,1c0,0 -1,1 -1,2c0,1 0,1 0,1c0,1 0,2 0,3c0,1 0,1 0,2c0,0 0,1 0,1c0,1 0.38269,1.076111 0,2c-0.541199,1.306549 -1,1 -1,1c0,1 0,2 0,2c-1,1 -1,2 0,3c0,0 0,2 0,2c0,1 0,2 0,3c0,1 1.458801,0.693451 2,2c0.38269,0.923889 0.292892,0.292908 1,1c0.707108,0.707092 0,2 1,2c0,0 1,0 1,1c0,0 1,0 2,1c0,0 1,1 1,1c0,0 1,1 1,1c0,1 1,2 1,2c0,0 0.292892,1.292908 1,2c0.707108,0.707092 2,1 2,1c0,0 0,1 2,2c0,0 0,1 1,1c1,0 1,0 1,0c2,0 1.292892,0.292908 2,1c0.707108,0.707092 2,0 2,1c0,0 1,0 1,0c1,0 1,1 1,1c0,0 0,1 0,2c0,0 0,1 0,1c0,1 -0.38269,1.076111 0,2c0.541199,1.306549 1,1 1,2c0,0 -0.38269,0.076111 0,1c0.541199,1.306549 1,1 1,2c0,1 0,1 0,1c0,1 0,2 0,2c1,1 1,1 1,1c0,1 0,1 1,2c0,0 0,0 0,1c0,0 1,0 1,1c0,1 -0.38269,1.076111 0,2c0.541199,1.306549 1,1 1,1c0,1 0,1 1,2c0,0 -0.38269,0.076111 0,1c0.541199,1.306549 1.292892,0.292908 2,1c1.414215,1.414215 1,2 1,2c0,1 0.458801,0.693451 1,2c0.38269,0.923889 0.458801,0.693451 1,2c0.38269,0.923889 1,2 1,2c0,1 0,2 0,2c1,0 2,1 2,1c1,1 1,1 1,1c1,0 1,0 3,0c1,0 2,0 2,0c1,0 2,0 3,0c0,0 1,0 1,0c1,0 1,1 2,1c1,0 1,0 1,0c2,0 3,0 4,0c0,0 1,0 2,0c0,0 0.823746,0.486267 3,1c1.946503,0.459503 2.292892,0.292908 3,1c0.707108,0.707092 1.693436,0.458801 3,1c0.923874,0.38269 1,0 1,0c1,0 2,0 4,0c1,0 2.693436,0.458801 4,1c2.771637,1.148041 5,0 8,0c4,0 7,0 9,0c4,0 6,0 10,0c3,0 5,0 9,0c3,0 7,0 10,0c3,0 5.026764,-0.770233 6,-1c2.176239,-0.513733 6,-1 9,-1c4,0 5.907776,-1.496216 10,-2c1.985016,-0.244354 5,-1 10,-1c4,0 7,0 9,0c2,0 5,0 10,0c2,0 4,0 5,0c2,0 3,0 3,0c2,0 5,0 8,0c3,0 4,0 5,0c1,0 2,0 2,0c1,0 2,0 3,0c3,0 3,0 4,0c0,0 1,0 2,0c1,0 1,0 2,0c2,0 3,1 4,1c0,0 1,0 2,0c0,0 1,0 2,0c1,0 1,0 2,0c0,0 1,0 1,0c1,0 2,0 3,0c1,0 1,0 1,0c1,0 2,0 2,0c1,0 3,-1 3,-1c0,0 -0.707092,-1.292908 0,-2c0.707092,-0.707092 1,0 1,0c1,0 3,-1 4,-1c1,0 2,0 2,0c0,-1 1,-1 2,-2c0,0 0.458801,0.306549 1,-1c0.38269,-0.923889 1,-1 2,-2c0,0 1.076111,-0.61731 2,-1c1.306549,-0.541199 2,-2 2,-2c1,0 1,0 2,-1c0,0 1,0 3,0c1,0 2,-1 2,-1c0,0 1,0 1,0c1,0 2,-1 2,-1c1,0 2,-1 3,-1c1,0 2,0 2,-1c0,0 1.292908,-0.292908 2,-1c0.707092,-0.707092 0.292908,-0.292908 1,-1c0.707092,-0.707092 0.292908,-0.292908 1,-1c0.707092,-0.707092 -0.707092,-1.292908 0,-2c0.707092,-0.707092 1,0 1,-1c0,0 0,-1 0,-2c0,0 0,0 0,-1c0,-1 0,-1 0,-2c0,0 1,-1 1,-1c0,-1 0,-1 0,-2c0,0 0,0 0,-1c0,0 1,-2 1,-2c0,-1 0,-2 0,-2c1,-1 0.292908,-1.292908 1,-2c0.707092,-0.707092 0.61731,-0.076111 1,-1c0.541199,-1.306549 1,-1 1,-2c0,-1 1,-1 1,-1c0,-1 1,-1 1,-2c0,0 0.458801,0.306549 1,-1c0.38269,-0.923889 1,-1 1,-2c0,0 0.770233,-0.026764 1,-1c0.513733,-2.176239 2,-2 2,-3c0,0 0,0 1,-1c0,0 0,0 0,-1c0,0 0.458801,-0.693451 1,-2c0.38269,-0.923889 0,-1 0,-1c0,-1 0,-2 0,-2c0,-1 0,-1 0,-2c0,-1 0,-1 0,-2c0,-1 0,-1 0,-1c0,-2 0,-2 0,-2c0,-1 0,-2 0,-2c0,0 0,-1 0,-2c0,0 0,-1 0,-1c0,-1 0,-2 0,-2c0,-2 0,-2 0,-3c0,0 0,-1 0,-1c0,-1 0,-2 0,-3c0,0 -0.458801,0.306549 -1,-1c-0.38269,-0.923889 0,-1 0,-1c-1,-1 -1,-1 -1,-2c0,0 -1,0 -1,-1c0,0 0,0 -1,-1c-1,-1 -1,-1 -1,-2c0,0 -1,-1 -1,-1c0,-1 0,-1 0,-2c0,-1 0.306549,-1.458801 -1,-2c-0.923889,-0.38269 -1,0 -2,-1c0,0 -1,0 -1,-1c0,0 -1,-1 -1,-1c-1,0 -1,-1 -1,-1c-1,-1 -1,-1 -2,-2c0,0 -1,0 -1,0c-1,0 -2,0 -3,-1c0,0 0,0 -1,0c0,0 -2,-1 -2,-1c-1,0 -3,0 -4,0c-1,0 -1,0 -2,0c0,0 -1,0 -1,0c-1,0 -1,0 -2,-1c0,0 0,0 -1,0c0,0 -1,0 -2,-1c0,0 0,0 -1,0c-1,0 -3.292908,-0.292892 -4,-1c-0.707092,-0.707108 -1,-1 -2,-1c0,0 0,0 -2,0c-1,0 -2,0 -3,0c0,0 -1,0 -2,0c-1,0 -3,0 -3,0c-2,0 -2,0 -2,0c-2,0 -3,0 -4,0c0,0 -1,0 -2,0c0,0 -1,0 -2,0c-5,0 -9,0 -10,0c0,0 -1,-1 -1,-1c0,0 -0.852722,-1.173096 -2,-2c-1.813995,-1.307449 -2,-1 -2,-1c-1,0 -2,0 -2,0c-1,0 -3,0 -8,0c-9,0 -18,0 -21,0c0,0 -1,0 -4,0c-4,0 -8,0 -11,0c-3,0 -4,0 -6,0c-2,0 -5,0 -8,0c-3,0 -5,0 -9,0c-4,0 -9,0 -15,0c-2,0 -4,0 -6,0c-1,0 -6,0 -8,0c0,0 -2,0 -3,0c-1,0 -2,0 -4,0c-1,0 -4,0 -5,0c-1,0 -1,0 -2,0c-1,0 -3.823746,0.486252 -6,1c-0.973251,0.229752 -1,0 -2,0c0,0 -1,1 -2,1c-1,0 -1,0 -2,0c-1,0 -2,0 -3,0l0,0l-1,1" id="svg_26" stroke-opacity="0" stroke-width="1.5" stroke="#000000" fill="#e5e5e5"/>
  <path d="m185.5,167.5c0,1 -0.292892,0.707108 -1,0c-0.707108,-0.707108 -1,-1 -2,-1c0,0 -0.292892,-0.292892 -1,-1c-0.707108,-0.707108 0,-1 0,-1c-1,-1 -2.292892,-0.292892 -3,-1c-0.707108,-0.707108 -1,-1 -1,-1c0,0 -0.292892,-0.292892 -1,-1c-0.707108,-0.707108 -1,-1 -1,-2c0,0 0,-1 0,-1c-1,-1 -1.292892,-1.292892 -2,-2c-0.707108,-0.707108 0,-1 0,-1c-1,-1 -0.292892,-1.292892 -1,-2c-0.707108,-0.707108 -1,0 -1,-1c0,-1 0,-1 0,-2c0,0 -0.292892,-0.292892 -1,-1c-0.707108,-0.707108 -1,0 -1,-1c0,-1 0,-1 -1,-2c0,0 0.707108,-0.292892 0,-1c-0.707108,-0.707108 -1.292892,-0.292892 -2,-1c-0.707108,-0.707108 -0.292892,-1.292892 -1,-2c-0.707108,-0.707108 -1,-1 -1,-1c-1,-1 -0.292892,-1.292892 -1,-2c-0.707108,-0.707108 -1.292892,-0.292892 -2,-1c-0.707108,-0.707108 -1.292892,-1.292892 -2,-2c-0.707108,-0.707108 0,-1 0,-1c0,-1 -1.458801,-2.693436 -2,-4c-0.38269,-0.923874 0,-1 0,-2c0,0 -1,-1 -1,-2c0,0 0,-1 0,-2c0,0 0,0 0,-1c0,-1 -0.292892,-0.292892 -1,-1c-1.414215,-1.414215 0,-3 0,-3c-1,-1 -1,-2 -1,-2c0,0 -1,-1 -1,-1c0,-1 0.38269,-1.076118 0,-2c-0.541199,-1.306564 -2,-1 -2,-2c0,-1 0,-1 0,-1c0,-1 -0.458801,-1.693436 -1,-3c-0.38269,-0.923882 0,-1 -1,-2c0,0 -0.458801,-1.693436 -1,-3c-0.38269,-0.923882 0.707108,-1.292892 0,-2c-0.707108,-0.707108 -0.61731,-0.076118 -1,-1c-0.541199,-1.306564 -1,-1 -1,-2c0,-1 0,-1 0,-1c-1,-2 -1,-2 -1,-3c0,0 0,0 0,-1c0,-1 -1,-2 -1,-2c0,0 0,-1 0,-2c0,-1 -1,-2 -1,-3c0,0 -1,-2 -1,-2c0,-1 0.707108,-1.292892 0,-2c-0.707108,-0.707108 -1,-1 -1,-2c0,-1 0.38269,-1.076118 0,-2c-0.541199,-1.306564 -1,-2 -2,-3c0,0 0,0 0,-1c0,-1 0,-1 0,-2c0,0 0,-1 0,-1c0,-1 0,-1 -1,-2c0,0 0,0 0,-1c0,0 0,-1 0,-2c0,0 0,0 0,-1c0,-1 0,-1 0,-2c0,-1 0,-1 0,-1c0,-1 0,-2 0,-2c0,-1 0,-1 0,-1c0,-1 0,-1 0,-2c0,-1 1,-1 1,-2c0,0 0,-1 0,-1c0,-1 0,-1 0,-2c0,-1 0,-1 1,-2c0,0 0,-1 0,-1c0,-1 0,-2 0,-3c0,0 0,-1 0,-2c0,0 1,0 1,-1c0,-1 0.292892,-1.292892 1,-2c0.707108,-0.707108 0.292892,-0.292892 1,-1c0.707108,-0.707108 0,-2 0,-2c1,-1 2,-2 2,-2c1,0 0.292892,-0.292892 1,-1c0.707108,-0.707108 1.076126,0.382683 2,0c1.306564,-0.541195 1,-1 2,-2c0,0 1,0 1,0c1,0 3,-1 4,-2c0,0 0,0 1,0c0,0 0,0 2,0c0,0 0,0 1,0c1,0 1,0 1,0c1,0 3,-1 4,-1c1,0 1,0 3,0c1,0 1,0 1,0c1,1 1,1 1,1c1,0 1,1 2,1c1,0 2,1 2,1c0,0 1,1 2,1c1,0 1,0 1,0c1,0 1,1 1,1c1,0 0.823746,0.486256 3,1c0.973251,0.229752 1,0 1,0c2,2 3,2 4,3c0,0 1,0 1,0c0,1 1,1 2,2c1,1 1,2 2,2c0,0 0.458801,-0.306564 1,1c0.38269,0.923878 1,1 1,1c1,0 1,1 2,2c0,0 0,1 1,1c0,0 1,1 2,2c0,0 0,1 0,1c1,0 1,1 1,1c1,1 0.292892,2.292892 1,3c0.707108,0.707108 1,0 1,1c0,0 -0.707108,1.292892 0,2c0.707108,0.707108 0.292892,0.292892 1,1c0.707108,0.707108 1,0 1,1c0,0 0,1 1,1c0,0 0.61731,1.076122 1,2c0.541199,1.306564 1,1 1,2c0,0 1,0 1,1c0,0 1,0 1,0c1,1 0.292892,1.292892 1,2c0.707108,0.707108 1,1 1,1c1,1 1.292892,1.292892 2,2c0.707108,0.707108 -0.707108,2.292892 0,3c0.707108,0.707108 2,1 2,1c0,1 0.292892,1.292892 1,2c0.707108,0.707108 0,2 0,2c0,0 1,2 1,2c0,1 0,1 0,1c0,1 -0.707108,1.292892 0,2c0.707108,0.707108 1,0 1,1c0,0 -0.765366,0.152245 0,2c0.541199,1.306564 2,1 2,2c0,0 0,1 0,1c1,2 1,3 1,3c0,0 0,1 0,1c0,0 0.292892,0.292892 1,1c0.707108,0.707108 0,1 0,1c0,1 0.292892,1.292892 1,2c0.707108,0.707108 0,2 0,2c1,1 -0.414215,1.585785 1,3c0.707108,0.707108 1,1 1,1c0,1 0,1 1,2c0,0 0,0 0,1c0,0 0.292892,1.292892 1,2c0.707108,0.707108 0.292892,1.292892 1,2c0.707108,0.707108 1,1 2,2c0,0 -0.923874,0.617317 0,1c1.306564,0.541199 1,-2 2,-2c0,0 -0.707108,-1.292892 0,-2c0.707108,-0.707108 1,0 1,-1c0,-1 0.292892,-1.292892 1,-2c0.707108,-0.707108 0,-1 0,-1c0,-1 0.292892,-0.292892 1,-1c0.707108,-0.707108 0,-2 0,-2c0,-1 1,-2 1,-2c0,-1 1,-2 1,-3c0,0 0.292892,-1.292892 1,-2c0.707108,-0.707108 1,-1 1,-1c1,-1 2,-2 2,-2c1,-1 0.292892,-1.292892 1,-2c0.707108,-0.707108 2,0 2,-1c0,0 1,0 1,0c2,-1 2,-1 2,-1c1,0 2,0 3,-1c0,0 1,0 2,0c2,0 2,-1 2,-1c1,0 2,0 2,0c0,-1 1,-1 1,-1c1,0 2,-1 2,-1c1,0 1,0 2,0c0,0 1.292908,0.707108 2,0c0.707092,-0.707108 0,-1 1,-1c1,0 2.076111,-0.382683 3,0c1.306549,0.541199 2,1 3,1c0,0 1,1 2,1c1,0 2,0 4,0c1,0 0.693451,0.458801 2,1c0.923889,0.382683 2,0 3,0c2,0 2,0 2,0c1,0 2,0 3,0c1,0 2,0 3,0c1,0 2,0 4,0c2,0 4,0 4,0c1,0 5,0 8,0c6,0 8,0 9,0c2,0 5,0 5,0c1,0 3.038727,0.519455 6,1c3.121429,0.506538 4,1 4,1c1,0 1.292908,0.292892 2,1c0.707092,0.707108 0.292908,0.292892 1,1c0.707092,0.707108 2,1 3,1c0,0 1,1 1,1c0,1 1,1 1,1c0,1 1,1 1,1c1,0 0.292908,0.292892 1,1c0.707092,0.707108 0.292908,0.292892 1,1c0.707092,0.707108 1,0 2,0c0,0 0,0 1,1c0,0 1,0 1,0c0,0 2.292908,0.292892 3,1c0.707092,0.707108 0.076111,0.617317 1,1c1.306549,0.541199 0.292908,1.292892 1,2c0.707092,0.707108 1,0 1,1c0,1 1,2 1,2c0,1 0,1 0,2c0,0 1,0 1,1c0,0 0,1 0,1c0,0 0,1 0,1c0,0 0,1 1,1c0,0 0.292908,-1.292892 1,-2c0.707092,-0.707108 1.61731,-1.076118 2,-2c0.541199,-1.306564 1,-1 1,-1c1,-1 0.292908,-1.292892 1,-2c0.707092,-0.707108 1,0 2,0c0,0 0,0 1,-1c0,0 2,0 2,0c0,-1 0,-1 1,-2c0,0 0,0 1,-1c0,0 0,0 1,-1c0,0 0.458801,-0.693436 1,-2c0.38269,-0.923882 1,-1 1,-2c0,0 1,0 1,-1c0,0 0,0 1,-1c0,0 0,0 1,-1c0,0 1,0 1,-1c0,0 1,0 1,0c0,0 1,-1 3,-2c0,0 0,-1 1,-1c0,0 0,0 1,-1c1,-1 1,-1 2,-2c0,0 1,0 1,-1c0,0 0,0 1,0c0,0 1,-2 1,-2c1,0 1,0 2,-1c0,0 0.292908,0.707108 1,0c0.707092,-0.707108 -0.306549,-1.458801 1,-2c0.923889,-0.382683 0.292908,-0.292892 1,-1c0.707092,-0.707108 0.292908,-0.292892 1,-1c0.707092,-0.707108 2,0 2,-1c0,0 1,-1 1,-1c0,0 1,-1 1,-1c1,0 2,-2 2,-2c1,0 0.693451,-1.458801 2,-2c0.923889,-0.382683 1,0 1,0c1,-1 1,-1 1,-1c1,-1 1,-1 2,-1c0,0 0.292908,-0.292892 1,-1c0.707092,-0.707108 1,-1 1,-1c0,0 1.292908,-0.292892 2,-1c0.707092,-0.707108 0,-1 1,-1c0,0 1.076111,-0.617317 2,-1c1.306549,-0.541195 1,-1 1,-1c1,-1 0.693451,-1.458805 2,-2c0.923889,-0.382683 0.292908,-0.292892 1,-1c0.707092,-0.707108 1,-1 2,-1c0,0 0,-1 1,-1c0,0 0,0 1,0c0,0 1,-1 2,-1c0,0 -0.306549,-0.458805 1,-1c0.923889,-0.382683 1,0 2,0c0,0 1,0 1,0c1,0 1,-1 2,-1c0,0 0.292908,0.707108 1,0c0.707092,-0.707108 1,-1 1,-1c1,0 1,0 2,-1c0,0 0,0 1,0c2,0 4,-1 5,-1c0,0 0,0 1,0c1,0 1.292908,-0.707108 2,0c0.707092,0.707108 0,1 1,1c0,0 0,0 1,1c0,0 1,0 1,1c0,0 0.458801,-0.306564 1,1c0.38269,0.923878 0,1 0,1c0,2 0,3 0,3c1,1 1,2 1,2c0,0 0,1 0,2c0,0 0,1 0,1c0,1 0,1 0,2c0,0 0,1 0,2c0,0 0,0 0,1c0,1 0,1 0,2c0,1 -0.292908,1.292892 -1,2c-0.707092,0.707108 0,1 0,2c0,0 0,1 0,2c0,0 0,0 0,1c0,1 0,1 0,2c0,1 -1,1 -1,1c0,1 0,2 0,2c-1,1 -1,1 -1,2c0,1 0,1 0,2c0,1 0,1 0,1c0,1 0,1 0,1c0,1 0.38269,1.076118 0,2c-0.541199,1.306564 -1,1 -1,2c0,1 0,1 0,2c0,0 0,0 0,1c0,0 1.414215,1.585785 0,3c-0.707092,0.707108 -1,0 -1,1c0,0 0,0 -1,2c0,0 -1,1 -1,2c0,1 0,1 0,1c-1,1 -1,2 -1,2c0,1 -1,1 -1,1c0,1 0,1 0,2c0,1 0,2 0,2c-1,0 -1,1 -1,2c0,0 0,1 -1,1c0,0 0,1 0,1c0,0 -1,3 -1,3c0,0 0.707092,1.292892 0,2c-0.707092,0.707108 -1,1 -1,1c-1,1 -1,2 -1,3c0,0 0,0 0,1c0,1 -1,2 -1,2c-1,1 -1,1 -1,1c0,1 -0.458801,0.693436 -1,2c-0.38269,0.923874 0,2 -1,2c0,0 0,1 0,1c0,1 0,2 0,2c-1,0 -1,1 -1,2c0,1 -0.61731,1.076126 -1,2c-0.541199,1.306564 -1,1 -1,1c0,2 0,3 -1,4c0,0 -1,1 -1,1c0,0 0,1 0,2c0,0 -1,1 -1,1c0,1 -1,1 -1,1c0,2 0,2 0,2c0,1 -1,3 -2,3c0,0 0,1 0,2c0,0 0,1 -1,2c0,0 -0.458801,-0.306564 -1,1c-0.38269,0.923874 0.38269,1.076126 0,2c-0.541199,1.306564 -1,1 -1,1c0,1 -1,1 -1,2c0,0 0.707092,0.292892 0,1c-0.707092,0.707108 -1,1 -1,1c0,1 -1,2 -1,2c-1,1 -1,1 -1,1c-1,1 -1.292908,1.292892 -2,2c-0.707092,0.707108 0,1 -1,2c0,0 -1,1 -1,1c-1,1 -1,1 -1,1c-1,1 -1,1 -1,1c-1,1 -1.292908,0.292892 -2,1c-0.707092,0.707108 -1.292908,1.292892 -2,2c-0.707092,0.707108 -3,1 -3,1c-1,0 -1,1 -2,2c0,0 -0.292908,0.292892 -1,1c-0.707092,0.707108 -1,1 -1,1c-1,0 -1,1 -2,2c0,0 -1,1 -1,1c0,1 0.38269,1.076126 0,2c-0.541199,1.306564 -1,2 -2,4c0,0 0,1 -1,2c-1,1 -0.292908,1.292892 -1,2c-0.707092,0.707108 -1,0 -2,1c0,0 0,1 0,1c-1,1 -2,2 -2,2c-1,1 -1.474274,3.149353 -2,4c-1.175568,1.902115 -2,1 -3,2c-1,1 -1,2 -2,3c-1,1 -1.770233,2.026749 -2,3c-0.513733,2.176254 -1.61731,3.076126 -2,4c-0.541199,1.306564 -3,2 -3,2c-1,1 -2,2 -3,3c0,0 -1.076111,1.61731 -2,2c-2.613129,1.082397 -2.61731,3.076126 -3,4c-0.541199,1.306564 -2.458801,1.693436 -3,3c-0.765381,1.847763 -0.61731,3.076126 -1,4c-0.541199,1.306564 -0.234619,3.152237 -1,5c-1.082397,2.613129 -1.679626,4.025818 -2,6c-0.506531,3.121445 -2,7 -3,9c-1,2 -3.167969,3.920349 -5,8c-2.206055,4.912567 -4.190277,8.881531 -6,12c-1.122345,1.93399 -1.692535,4.186005 -3,6c-0.826904,1.147278 -3.493469,4.878571 -4,8c-0.160187,0.987091 -1.692535,3.186005 -3,5c-0.826904,1.147278 -4,4 -6,6c-2,2 -3.076111,2.61731 -4,3c-2.613129,1.082397 -4.012909,2.839813 -5,3c-3.121429,0.506531 -4.907776,1.496216 -9,2c-1.985016,0.244354 -4,0 -7,0c-2,0 -4,0 -4,0c-5,-2 -4.878571,-2.493469 -8,-3c-0.987091,-0.160187 -2,-1 -4,-2c0,0 -3.026764,0.229767 -4,0c-2.176239,-0.513733 -4,-2 -6,-2c-1,0 -3,-1 -4,-1c-1,0 -2,-1 -2,-1c-2,-1 -3,-2 -3,-2c0,-1 -1.173096,-1.852722 -2,-3c-1.307465,-1.813995 -2,-4 -3,-5c0,0 -0.61731,-1.076111 -1,-2c-0.541199,-1.306549 -1.292892,-2.292908 -2,-3c-0.707108,-0.707092 -2,-1 -3,-2c0,0 -0.692551,-1.186005 -2,-3c-0.826904,-1.147278 -2,-1 -2,-1c-1,-1 -3.292892,-3.292908 -4,-4c-0.707108,-0.707092 -1,-2 -1,-2c-1,-1 -0.692551,-1.186005 -2,-3c-0.826904,-1.147278 -2,-2 -3,-3c-1,-1 -0.71022,-1.042908 -1,-2c-1.04483,-3.450836 -2,-3 -4,-5c0,0 -0.2565,-0.796997 -1,-2c-1.662506,-2.689987 -2.173096,-4.852737 -3,-6c-1.307449,-1.813995 -1.61731,-3.076126 -2,-4c-0.541199,-1.306564 -1.173096,-0.852737 -2,-2c-1.307449,-1.813995 -0.434631,-4.150986 -3,-6c-0.811249,-0.584717 -1.234634,-2.152237 -2,-4c-1.082397,-2.613129 -2,-4 -3,-5c-1,-1 -1.789856,-3.07843 -3,-6c-0.855713,-2.065857 -1.458801,-1.693436 -2,-3c-0.765366,-1.847763 1.031448,-4.412079 -1,-8c-1.39357,-2.461304 -2.770248,-5.026749 -3,-6c-0.513748,-2.176254 -4.71022,-6.042908 -5,-7c-1.04483,-3.450851 -2.385101,-7.372009 -5,-11c-0.826904,-1.147263 -0.743332,-4.033493 -1,-5c-2.069321,-7.792175 -5.173096,-8.852737 -6,-10c-1.307449,-1.813995 -0.234634,-2.152237 -1,-4c-0.541199,-1.306564 -1,-2 -1,-2c0,-1 0,-1 0,-2l0,-1" id="svg_23" stroke-opacity="0" stroke-width="1.5" stroke="#000000" fill="#f7decd"/>
  <path d="m330.5,150.5c0,1 1,1 1,1c1,0 2,0 2,0c0,0 1,0 2,0c0,0 1,1 2,1c0,0 0.292908,-0.707108 1,0c0.707092,0.707108 0.149353,0.474274 1,1c1.9021,1.175568 1,2 1,3c0,1 0,2 0,2c1,1 2,1 2,2c0,0 0,1 0,2c0,1 0.292908,1.292892 1,2c0.707092,0.707108 1,2 1,2c0,1 -0.707092,1.292892 0,2c0.707092,0.707108 1,1 1,1c0,0 0,1 0,1c1,1 1,2 1,2c0,1 0,1 0,2c0,1 0,1 0,1c1,2 1,3 1,3c0,1 0,2 0,2c0,2 0,2 0,3c0,0 0,1 0,2c0,0 0,0 0,1c0,1 0,1 0,1c0,2 0,2 0,2c0,1 0,2 0,2c0,0 -1,2 -1,2c0,0 -1,1 -1,2c0,1 0,1 0,2c0,1 -1,2 -1,2c0,0 0,1 0,1c-1,1 -1,2 -1,2c-1,1 -1,1 -1,2c0,0 -1,1 -1,1c0,1 0,2 -1,2c0,0 -1,1 -1,1c0,1 -1,1 -1,1c-1,1 -1,1 -1,1c-1,0 -0.292908,0.292892 -1,1c-0.707092,0.707108 -1.076111,-0.38269 -2,0c-1.306549,0.541199 -1,1 -2,2c0,0 -2,0 -4,2c0,0 -1,0 -2,0c0,0 -1,0 -1,0c-1,0 -1,0 -2,0c0,0 0,0 -1,0c-1,0 -1,0 -2,0c0,0 -1,0 -1,0c-1,0 -2,-1 -2,-1c0,0 -2,-1 -3,-1c0,0 -1,-1 -1,-1c0,0 -1,0 -1,-1c0,0 -0.292908,-0.292892 -1,-1c-0.707092,-0.707108 -1,0 -1,-1c0,-1 0,-2 0,-2c0,0 0,-1 -1,-1c0,0 0,-1 0,-1c0,-1 -1,-1 -1,-1c0,-1 0,-1 0,-2c0,-1 -0.824432,-0.097885 -2,-2c-0.525726,-0.850647 0,-1 0,-2c0,0 0,-1 0,-1c-1,-1 -1,-3 -2,-4c0,0 -1,-2 -1,-2c0,-1 0,-2 0,-2c0,-1 0,-2 0,-2c0,-1 0,-2 0,-3c0,0 0,0 0,-1c0,0 0,-1 0,-1c1,-1 1,-1 1,-1c0,-1 1,-1 1,-2c0,-1 0,-1 0,-1c1,-1 1,-1 1,-1c0,-1 0,-1 0,-2c0,-1 0,-1 0,-1c0,-2 0,-2 0,-2c0,-1 0,-2 0,-2c1,-2 1,-2 1,-2c0,-1 1,-2 1,-2c0,-1 0.292908,-0.292892 1,-1c0.707092,-0.707108 0,-1 1,-2c1,-1 0.61731,-1.076126 1,-2c0.541199,-1.306564 2,-2 2,-2c0,0 1,-1 1,-1c0,-1 1,-1 1,-1c0,-1 0.076111,-1.61731 1,-2c1.306549,-0.541199 0.292908,-1.292892 1,-2c0.707092,-0.707108 1.292908,-0.292892 2,-1c0.707092,-0.707108 2,-1 2,-1c1,0 2.292908,0.707108 3,0c0.707092,-0.707108 1,-1 2,-1c0,0 0,0 2,0c0,0 0,0 1,0c1,0 1,0 1,0l1,0l1,0" id="svg_25" stroke-opacity="0" stroke-width="1.5" stroke="#000000" fill="#ffffff"/>
  <path d="m286.5,181.5c0,0 0,0 0,-1c0,0 0,-1 0,-2c0,0 0,0 0,-1c0,-1 0,-1 0,-2c0,-1 0,-1 0,-1c0,-1 -1.458801,-2.693436 -2,-4c-0.38269,-0.923874 0,-1 0,-2c0,0 0.707092,-1.292892 0,-2c-0.707092,-0.707108 -1,0 -1,-1c0,-1 0,-2 -1,-4c0,0 0,-1 0,-2c0,0 -1,-1 -1,-1c-1,-1 -1.292908,-1.292892 -2,-2c-0.707092,-0.707108 -1,-2 -2,-2c0,0 -0.292908,-0.292892 -1,-1c-0.707092,-0.707108 0,-1 0,-1c0,-1 -0.292908,-0.292892 -1,-1c-0.707092,-0.707108 -1,-1 -1,-2c0,0 -1,0 -1,0c0,0 -1,-1 -1,-1c-1,0 -2,0 -3,-1c-1,-1 -1,-1 -2,-1c-1,0 -2,0 -2,0c0,0 -1.076111,0.38269 -2,0c-1.306549,-0.541199 -2,-1 -2,-1c-1,0 -1,0 -2,0c-1,0 -1,0 -1,0c-1,0 -2,1 -3,1c0,0 -1,0 -1,0c0,1 -1,1 -2,1c0,0 -1,1 -1,1c0,1 -1,1 -1,1c0,0 -1,1 -1,1c-1,0 -0.292892,0.292892 -1,1c-0.707108,0.707108 -1.292892,1.292892 -2,2c-0.707108,0.707108 -1,1 -1,1c-1,0 -1,1 -1,1c-1,0 -1.292892,1.292892 -2,2c-1.414215,1.414215 -1,2 -1,3c0,1 -0.292892,0.292892 -1,1c-1.414215,1.414215 0.707108,3.292892 0,4c-0.707108,0.707108 -1,1 -1,1c0,0 0,1 0,2c0,0 0,1 0,1c0,1 0,1 0,2c0,0 0,1 0,2c0,0 0,0 0,1c0,1 0,1 0,2c0,1 0,1 0,1c0,1 -1,2 -1,2c0,1 0,3 0,3c0,0 -1,1 -1,2c0,0 0,1 0,2c0,0 0,1 0,1c1,2 1,2 1,3c0,1 0.61731,1.076126 1,2c0.541199,1.306564 1,1 1,1c1,1 0.292892,1.292892 1,2c0.707108,0.707108 1,0 1,1c0,0 1,0 1,1c0,0 0,1 1,1c0,0 1,2 1,2c1,1 1,1 2,2c0,0 1,0 1,0c1,0 2,0 2,1c0,0 1,1 1,1c0,0 1,0 1,0c1,1 1,1 1,1c1,1 2,1 2,1c1,0 1,0 1,0c1,0 2,0 2,0c0,0 0.292908,0.292892 1,1c0.707092,0.707108 1,0 1,0c1,0 2,0 2,0c1,0 1,0 2,0c0,0 1,0 1,0c1,0 2,0 2,0c0,0 1,0 2,0c0,0 1,0 1,-1c0,0 1,0 1,0c0,0 1,-1 1,-1c1,0 1,0 1,0c1,0 2,0 2,0c0,0 1,-1 1,-1c1,0 1,-1 1,-1c1,0 1,-1 2,-1c0,0 1,-1 1,-1c1,0 0.292908,-1.292892 1,-2c0.707092,-0.707108 1,-1 1,-1c0,-1 1,-1 1,-2c0,-1 1,-2 1,-3c0,0 0,0 0,-1c0,-1 0,-2 0,-2c1,-1 1,-1 1,-2c0,0 0.458801,0.306564 1,-1c0.38269,-0.923874 0,-1 0,-1c0,-2 0,-2 0,-2c0,-1 0,-2 0,-2c0,0 0,-1 0,-2l0,0" id="svg_24" stroke-opacity="0" stroke-width="1.5" stroke="#000000" fill="#fffdfc"/>
  <path stroke-opacity="0" d="m228.5,58.5c-1,0 -1,1 0,2c1,1 1,2 2,2c0,0 0,1 0,1c1,1 1,2 1,2c0,0 -0.38269,1.076118 0,2c0.541199,1.306564 1,1 1,2c0,1 0,1 0,1c0,1 0,2 0,2c-1,1 -1,2 -1,3c0,0 -1,2 -1,2c0,1 -0.292892,1.292892 -1,2c-0.707108,0.707108 -1,1 -2,2c-1,1 -1,2 -1,2c0,0 -0.292892,1.292892 -1,2c-0.707108,0.707108 -0.292892,0.292892 -1,1c-0.707108,0.707108 -1,1 -1,2c0,0 0,0 0,1c0,1 0,1 0,2c0,0 0,1 0,1c-1,1 -1,3 -1,3c0,0 0,1 0,2c0,0 0,0 0,1c0,1 0,1 0,2c0,0 0,1 1,2c0,0 -0.707108,1.292892 0,2c0.707108,0.707108 0.292892,0.292892 1,1c0.707108,0.707108 1,1 1,1c0,0 1,1 1,1c1,1 0.61731,1.076118 1,2c0.541199,1.306564 2,1 2,1c1,0 0.292892,0.292892 1,1c0.707108,0.707108 0.292892,0.292892 1,1c0.707108,0.707108 2.824432,0.902115 4,-1c0.525726,-0.850655 1,-1 2,-2c0,0 0.292892,-0.292892 1,-1c0.707108,-0.707108 0.61731,-0.076118 1,-1c0.541199,-1.306564 0.61731,-1.076118 1,-2c0.541199,-1.306564 0.61731,-1.076118 1,-2c0.541199,-1.306564 1,-1 1,-2c0,-1 0,-1 1,-2c0,0 1,-1 1,-1c1,-1 1,-1 3,-1c1,0 1,0 2,0c0,0 2,-1 3,-1c0,0 0.292892,-0.292892 1,-1c0.707108,-0.707108 1,0 2,0c0,0 1,0 2,-1c0,0 0,0 1,0c0,0 0,0 1,-1c0,0 1,0 1,0c1,0 2,0 3,-1c0,0 3,0 4,0c2,0 3,0 4,0c0,0 0.61731,0.076118 1,1c0.541199,1.306564 1.458801,0.693436 2,2c0.38269,0.923882 0,1 0,1c0,1 0,2 0,2c0,1 -1,1 -1,2c0,1 0,2 -1,4c0,0 0,0 0,1c0,1 0,1 0,1c1,1 2,1 2,2c0,0 0,0 0,1c0,0 0,1 1,2c0,0 0,0 1,1c0,0 0,1 1,1c0,0 0,1 0,1c0,0 1,1 1,1c0,1 0,1 0,1c0,1 1,2 1,2c1,0 1,1 2,1c0,0 1,0 1,0c1,0 2,0 2,0c0,0 1,0 2,0c0,0 0,0 2,0c0,0 0.026764,-0.229752 1,0c2.176239,0.513741 1.61731,1.076118 2,2c0.541199,1.306564 3,1 5,1c1,0 2,0 2,0c0,0 1,0 2,0c1,0 1.292908,-0.292892 2,-1c0.707092,-0.707108 2,0 2,0c1,0 1,-1 2,-2c0,0 1,0 1,0c1,0 1,-1 2,-1c0,0 1,-1 1,-1c0,-1 1,-1 1,-1c0,-1 0,-2 0,-2c0,-1 0,-1 0,-2c0,0 0,-1 0,-1c0,-1 0,-2 0,-2c0,0 0,-1 1,-1c0,0 1,-1 1,-1c0,0 1,0 2,-1c1,-1 1.823761,-1.486259 4,-2c2.919739,-0.689262 4.076111,-0.617317 5,-1c1.306549,-0.541199 1,-1 2,-1c1,0 1,0 2,-1c0,0 1,0 1,0c0,0 2,-1 2,-1c3,0 3,0 4,0c1,0 2,0 3,0c0,0 0.076111,-0.382683 1,0c1.306549,0.541199 2.458801,1.693436 3,3c1.148041,2.771637 1.486267,2.823746 2,5c0.229767,0.973251 0,1 0,2c0,0 1,2 2,3c0,0 0,1 1,2c0,0 0,1 0,1c1,0 2,1 2,1c1,1 1,1 1,1c1,1 1,1 1,1c1,1 2,1 2,1c1,0 1,0 2,0c1,0 1,0 2,-1c0,0 0,-1 1,-3c0,0 0.458801,0.306564 1,-1c0.38269,-0.923882 0,-1 0,-2c0,-1 0,-1 0,-1c0,-1 0,-2 0,-2c1,-1 1,-2 1,-2c0,0 1,-1 1,-1c0,-2 0,-2 0,-2c0,-1 0,-2 0,-2c0,-1 0,-2 0,-2c0,0 0,-1 1,-3c0,0 0,-1 0,-1c0,-1 0.458801,-0.693436 1,-2c0.38269,-0.923882 1,-2 1,-2c0,-1 1,-2 1,-3c0,0 0,-1 0,-1c0,-1 0,-1 0,-2c0,0 0,-1 0,-2c0,0 -1.414215,-0.585785 0,-2c0.707092,-0.707108 1,0 1,-1c0,-1 -1,0 -1,0c0,0 -1,0 -1,0c0,1 -1,1 -1,1c-1,1 -1,1 -2,1c0,0 -1,0 -1,1c0,0 -1,1 -1,1c0,0 -1,0 -1,0c-1,1 -1,1 -2,1c0,0 -0.292908,0.292892 -1,1c-0.707092,0.707108 -1,0 -2,0c-1,0 -2,0 -3,-1c0,0 -1,-1 -2,-1c0,0 -1,0 -1,0c-2,-1 -3,-2 -3,-2c0,0 -0.707092,-1.292892 0,-2c0.707092,-0.707108 1,-1 2,-2c0,0 0,0 0,-1c0,0 0.61731,-0.076118 1,-1c0.541199,-1.306564 1,-1 1,-2c0,-1 1,-1 1,-2c0,-1 1,-1 1,-1c0,-1 0,-2 0,-2c0,-1 0,-1 0,-2c0,0 0,-1 0,-1c0,-1 0,-2 0,-2c0,0 0,-1 0,-2c0,0 0,-1 0,-2c0,-1 -0.458801,-2.693436 -1,-4c-0.38269,-0.923878 0,-1 0,-2c0,0 -0.458801,-0.693436 -1,-2c-0.765381,-1.847759 -0.292908,-1.292892 -1,-2c-0.707092,-0.707108 -1,-2 -1,-2c0,-1 -1,-2 -1,-2c0,0 0.306549,-1.458805 -1,-2c-0.923889,-0.382683 -1,0 -2,-1c-1,-1 -1.076111,-1.617317 -2,-2c-1.306549,-0.541195 -1,-2 -2,-3c0,0 -1,-1 -1,-2c0,0 -1,-1 -1,-1c0,-1 -1,-1 -1,-1c-1,-1 -2,-1 -3,-1c0,0 0,0 0,1c0,0 0,1 0,1c0,1 -0.61731,2.076122 -1,3c-0.541199,1.306564 -1,1 -1,1c0,1 -1,2 -1,2c0,1 0,1 0,1c-1,1 -1,1 -1,1c-1,1 -1,1 -1,2c0,0 -1,0 -1,1c0,0 -1,1 -1,1c-1,0 -1,1 -2,2c0,0 0.707092,0.292892 0,1c-0.707092,0.707108 -1,1 -1,1c-1,0 -2,1 -2,1c-1,0 -2,0 -2,0c0,0 -1,0 -2,0c-1,0 -1,-1 -1,-1c-1,0 -1.076111,-0.617317 -2,-1c-1.306549,-0.541195 -2,-2 -2,-2c0,0 -1,-1 -2,-2c0,0 -1,-1 -1,-1c-1,0 -0.292908,-0.292892 -1,-1c-0.707092,-0.707108 -1,-1 -1,-1c0,0 -1,-1 -1,-1c-1,-1 -1,-1 -2,-2c0,0 -1,-1 -2,-1c0,0 -1,1 -1,1c0,1 0,1 0,2c0,0 0,1 0,1c0,1 0,2 0,2c0,0 0,1 0,2c0,0 0,1 0,2c0,0 0,0 0,1c0,2 -1,2 -2,3c0,0 -2.292908,-0.707108 -3,0c-0.707092,0.707108 0,1 -1,1c-1,0 -1,0 -1,0c-2,0 -2,0 -2,0c-1,0 -1,0 -2,0c0,0 -1,0 -1,0c0,0 -1,-1 -1,-1c-1,0 -1,0 -1,0c-1,-1 -1,-1 -2,-2c0,0 0,-1 -1,-2c0,0 0,-1 0,-1c0,0 -1,-1 -1,-1c-1,-1 -1,-2 -1,-2c-1,-1 -0.61731,-1.076122 -1,-2c-0.541199,-1.306564 -1.292908,-0.292892 -2,-1c-0.707092,-0.707108 -0.292908,-0.292892 -1,-1c-0.707092,-0.707108 0,-1 -1,-1c-1,0 -2,-1 -3,-1c-1,0 -1,0 -3,0c0,0 0,0 -1,0c-1,0 -1,0 -2,0c0,0 -1,0 -1,0c-1,0 -2,-1 -2,-1c-1,0 -1,0 -1,0c-1,0 -1,1 -1,2c0,0 0.292908,0.292892 1,1c0.707092,0.707108 0,1 1,2c0,0 0,0 0,1c0,0 1,2 1,2c0,1 0.292908,2.292892 1,3c0.707092,0.707108 0,2 0,2c0,0 -1,1 -1,2c0,0 0,1 0,1c-1,0 -0.292908,1.292892 -1,2c-0.707092,0.707108 -1,1 -2,1c0,0 0.306549,1.458805 -1,2c-0.923889,0.382683 -1,1 -1,1c-1,0 -1,0 -1,1c0,0 -1,1 -1,1c-1,0 -1,1 -1,1c-1,0 -1.292908,0.292892 -2,1c-0.707108,0.707108 0,2 -1,2c0,0 -1,0 -1,1c0,0 -1,0 -2,0c0,0 -1,1 -1,0c0,0 -0.61731,-0.076118 -1,-1c-0.541199,-1.306564 -1,-1 -1,-1c-1,-1 -1.076126,-1.617317 -2,-2c-1.306564,-0.541195 -2.038742,-0.519455 -5,-1c-3.121445,-0.506542 -2.292892,-1.292892 -3,-2c-0.707108,-0.707108 -1,0 -2,0c0,0 -1,0 -1,0c-1,0 -1,-1 -2,-1c-1,0 -0.693436,-0.458805 -2,-1c-0.923874,-0.382683 -1,0 -2,-1l-1,0l-1,0" id="svg_22" stroke-width="1.5" stroke="#000000" fill="#f5be51"/>
  <g id="svg_1" fill="#000000" transform="translate(0,630) scale(0.10000000149011612,-0.10000000149011612) ">
   <path id="svg_2" d="m1325,6176c-54,-25 -134,-105 -165,-166c-17,-33 -51,-140 -64,-202c-13,-57 11,-25 33,45c51,159 141,278 235,310c27,9 58,17 68,17c11,0 16,5 13,10c-11,17 -68,11 -120,-14z"/>
   <path id="svg_3" d="m1384,6021c-34,-21 -69,-94 -62,-127c3,-14 11,-5 31,32c14,28 43,65 64,82c31,26 34,31 18,32c-11,0 -34,-9 -51,-19z"/>
   <path id="svg_4" d="m4460,6036c0,-3 24,-17 54,-32c78,-38 150,-105 181,-169c22,-45 26,-64 23,-117c-2,-35 -8,-71 -12,-80c-5,-11 -4,-18 2,-18c18,0 42,68 42,122c0,100 -83,214 -194,266c-49,23 -96,37 -96,28z"/>
   <path id="svg_5" d="m1542,5971c-69,-24 -107,-61 -133,-130c-59,-155 -23,-403 107,-750c76,-203 164,-350 273,-456l42,-40l-7,-111c-8,-128 -1,-166 59,-324c41,-109 82,-197 123,-262c13,-21 24,-40 24,-43c0,-3 -24,-5 -52,-5c-29,0 -96,-5 -148,-10c-249,-26 -377,-97 -431,-239c-58,-155 45,-341 211,-381l50,-12l0,-48c0,-108 33,-205 96,-278c19,-22 34,-42 34,-45c0,-3 -30,12 -67,33c-132,76 -323,122 -412,100c-65,-16 -122,-52 -172,-108c-90,-100 -107,-236 -50,-391c39,-108 81,-177 228,-379c144,-197 173,-244 217,-351l34,-84l-107,-103c-131,-125 -166,-184 -159,-269c4,-46 10,-62 37,-89c18,-19 49,-41 70,-50c36,-17 37,-19 41,-79c2,-34 4,-90 4,-124l1,-62l-79,-77l-79,-77l-138,-28c-244,-49 -415,-111 -470,-170c-54,-57 -31,-105 76,-160c54,-28 65,-38 65,-59c0,-52 48,-91 126,-104c22,-4 106,-2 187,4c136,11 158,10 339,-14c495,-65 784,-81 1508,-81c530,1 661,4 860,20c167,14 331,20 570,20c233,1 348,5 378,14c45,13 112,64 112,87c0,22 68,34 192,33c138,-1 204,16 243,62c39,48 33,70 -45,153c-45,49 -172,119 -238,132c-17,4 -41,17 -53,30l-22,23l17,443c9,244 20,594 26,778c16,528 18,572 27,580c4,4 88,15 186,23c98,8 180,17 183,19c2,3 -3,22 -12,44c-9,21 -23,77 -30,124c-17,106 -29,463 -17,509c8,30 15,35 65,51c143,44 210,166 211,385c1,132 -26,178 -144,243c-100,55 -157,66 -324,65c-167,-1 -291,-19 -539,-80c-169,-41 -187,-52 -234,-153c-30,-63 -42,-197 -23,-265c28,-105 107,-177 219,-198l58,-11l-15,-60c-9,-39 -15,-113 -15,-206c-1,-122 3,-159 22,-230c29,-104 83,-218 123,-256c26,-25 38,-29 86,-29l56,0l-7,-90c-24,-342 -56,-1180 -56,-1479c0,-193 -1,-207 -17,-202c-39,12 -305,55 -413,66c-75,9 -119,18 -127,27c-6,8 -14,38 -18,66c-4,29 -18,96 -30,149c-13,54 -27,144 -31,201l-6,103l50,37c64,46 71,70 62,216c-6,111 -7,114 -37,141c-17,15 -36,29 -42,31c-14,5 80,266 178,497c118,277 157,428 149,569c-5,97 -40,169 -107,219c-83,64 -179,78 -306,44c-38,-10 -71,-17 -73,-15c-2,2 4,42 14,89c12,65 21,87 35,91c25,8 68,61 92,115c31,67 30,242 -1,321c-30,74 -81,132 -145,162c-63,30 -193,51 -282,45c-36,-2 -65,-2 -65,-1c0,15 80,154 158,278c53,83 105,172 116,198l21,48l-23,39l-22,38l53,55c60,63 58,58 178,332c130,298 146,348 205,655l33,175l-19,42c-57,130 -203,101 -435,-85c-121,-98 -178,-152 -273,-257l-63,-70l6,75c3,41 9,93 12,115l6,40l-60,-57c-65,-61 -99,-76 -132,-58c-30,16 -26,48 14,110c68,105 38,195 -128,385l-35,40l-22,-50c-51,-120 -89,-175 -120,-175c-19,0 -47,29 -78,81c-29,48 -52,68 -90,75l-32,6l6,-59c7,-65 -5,-87 -52,-99c-38,-10 -68,9 -113,70c-23,31 -50,60 -61,66c-27,15 -112,24 -144,16l-25,-6l19,-43c40,-88 18,-172 -59,-224c-46,-31 -72,-29 -107,8c-16,18 -47,40 -69,49c-46,21 -135,36 -135,24c0,-5 9,-33 20,-62c31,-82 26,-112 -28,-177c-14,-16 -31,-45 -39,-64c-8,-18 -16,-31 -19,-29c-2,3 -39,81 -82,174c-43,93 -97,197 -119,230c-71,105 -160,170 -268,198c-76,20 -118,20 -183,-3zm222,-43c125,-48 194,-131 306,-363c79,-165 157,-303 217,-389c31,-43 34,-52 24,-74c-25,-54 -1,-28 62,65c36,54 83,114 104,135c40,38 148,98 177,98c26,0 73,-27 90,-52c28,-40 16,-139 -13,-105c-10,12 -20,10 -70,-15c-106,-53 -198,-187 -276,-401l-50,-138l-45,6c-83,13 -130,54 -146,130c-13,63 -79,206 -167,364c-90,160 -105,180 -199,269c-36,34 -52,61 -78,130c-56,149 -59,157 -59,142c-1,-23 24,-116 50,-185c17,-46 40,-78 99,-140c53,-55 91,-106 122,-165c25,-47 70,-133 101,-191c52,-96 107,-225 107,-249c0,-6 -14,-10 -31,-10c-59,0 -244,-113 -261,-160c-8,-20 -49,27 -132,150c-76,111 -107,177 -169,360c-119,347 -144,579 -77,711c51,99 178,130 314,77zm1659,-105c42,-64 69,-116 77,-150c11,-48 10,-56 -9,-85c-64,-100 -72,-152 -28,-183c38,-27 89,-19 135,21c49,42 49,41 27,-85c-20,-111 -34,-159 -58,-193c-29,-43 -52,-36 -67,20c-33,121 -92,188 -157,178c-56,-8 -152,-57 -184,-94c-25,-28 -30,-41 -26,-67c5,-31 4,-32 -89,-78c-137,-68 -151,-65 -238,51c-44,59 -46,64 -31,85c49,71 -23,187 -118,187c-41,0 -135,-43 -185,-85c-18,-15 -57,-65 -88,-111c-64,-97 -54,-99 -124,25c-48,85 -46,106 16,182c57,69 69,105 54,160c-7,23 -18,52 -27,65l-15,23l39,-11c57,-15 74,-26 119,-74c47,-49 67,-53 122,-25c70,36 122,113 122,179c0,16 -11,50 -24,76c-18,35 -20,46 -9,42c8,-3 31,-6 50,-6c37,0 64,-23 136,-114c18,-22 44,-40 67,-47c33,-10 43,-9 72,7c45,26 72,82 58,119c-24,64 26,30 59,-40c21,-45 73,-95 98,-95c23,0 78,45 101,82c11,18 28,57 37,86c10,28 19,52 20,52c2,0 32,-44 68,-97zm931,-47c46,-19 88,-81 75,-110c-5,-11 -29,-109 -54,-216c-59,-254 -74,-301 -146,-471c-34,-79 -79,-189 -101,-244c-48,-121 -75,-169 -122,-214l-36,-35l-62,64c-85,86 -177,130 -268,130c-46,0 -78,-6 -105,-20c-22,-11 -40,-20 -41,-20c-1,0 -4,13 -6,29c-4,28 -2,30 37,35c57,9 97,36 143,98c54,73 109,122 237,208c141,96 249,204 293,294c35,71 75,177 68,183c-2,2 -28,-47 -59,-109c-49,-101 -64,-122 -138,-193c-46,-44 -139,-117 -206,-163c-123,-85 -172,-130 -231,-216c-21,-31 -47,-54 -75,-66c-68,-31 -70,-29 -89,63c-15,74 -52,209 -67,247c-3,8 -7,-6 -9,-31l-3,-46l-48,5c-43,4 -52,1 -85,-28c-39,-35 -61,-68 -52,-78c4,-3 13,4 21,15c27,39 82,66 120,59c56,-11 81,-63 100,-210c4,-26 15,-80 26,-120c10,-39 19,-93 19,-119c0,-30 4,-46 10,-42c6,3 10,37 10,75c0,66 1,70 25,76c42,11 74,-4 92,-41c15,-31 16,-50 6,-163c-14,-162 -25,-197 -77,-247l-41,-40l-5,45l-6,45l-11,-51c-35,-150 -165,-482 -247,-627c-65,-118 -150,-184 -271,-213c-171,-40 -344,33 -410,171c-14,30 -41,114 -60,187c-20,73 -60,194 -89,268c-30,74 -60,161 -66,193c-6,31 -14,57 -17,57c-6,0 3,-82 13,-117c6,-20 3,-23 -24,-23c-60,0 -104,87 -122,244c-10,83 -1,181 20,228c7,15 26,32 43,38c42,14 47,13 47,-10c0,-40 16,-18 28,38c7,31 35,116 62,187c56,146 87,185 162,206c43,12 54,10 143,-26c20,-8 20,-8 0,14c-44,51 -113,65 -181,36l-35,-14l21,37c37,66 124,165 165,188l40,22l57,-87c92,-140 120,-146 298,-66c157,71 211,73 274,8c41,-42 47,-33 13,18c-30,44 -68,62 -137,63c-44,1 -55,5 -58,18c-7,37 103,106 184,115c36,5 43,2 66,-26c14,-16 33,-50 42,-73c9,-24 25,-68 36,-99c11,-30 27,-64 36,-75c16,-19 16,-17 0,32c-5,18 -2,22 24,27c35,7 63,47 85,120c11,38 37,72 122,163c100,108 303,284 400,348c31,21 123,58 161,65c1,1 18,-5 36,-13zm1030,-1868l40,-10l-53,-18c-67,-22 -121,-75 -158,-154c-26,-57 -28,-69 -28,-191c1,-141 16,-197 68,-249l23,-23l-265,4c-372,5 -462,18 -527,75c-60,53 -85,119 -85,225c0,79 21,154 60,213l30,44l201,37c178,33 297,51 425,63c60,5 224,-4 269,-16zm119,-62c44,-18 95,-78 103,-122c12,-65 -2,-224 -26,-287c-28,-73 -60,-112 -122,-143c-72,-37 -136,-42 -171,-14c-41,32 -67,92 -76,173c-17,151 21,293 96,359c50,45 135,60 196,34zm-1605,-6c158,-17 249,-75 293,-187c46,-120 23,-318 -45,-382l-24,-22l-6,33c-10,56 -40,92 -102,125c-85,44 -150,56 -316,57c-107,1 -148,4 -148,13c0,35 127,317 162,361c12,14 61,15 186,2zm-1811,-72l39,-63l-24,-65c-14,-36 -29,-77 -34,-92c-10,-28 -12,-28 -97,-28c-117,0 -153,-8 -213,-44c-65,-39 -88,-83 -97,-180l-6,-74l-55,21c-65,24 -152,108 -171,165c-18,53 -16,140 4,194c24,61 97,129 169,156c71,27 188,50 303,61c153,14 138,18 182,-51zm-42,-295c-3,-16 -22,-67 -41,-116c-19,-48 -50,-136 -69,-195c-19,-59 -49,-129 -66,-157c-18,-27 -42,-72 -54,-98l-23,-48l-20,28c-67,96 -87,184 -78,347c9,153 24,187 103,223c34,16 85,28 132,33c132,13 124,14 116,-17zm1844,-58c83,-20 159,-62 177,-97c17,-33 18,-65 2,-189l-12,-97l-45,-22c-66,-31 -179,-102 -247,-155c-41,-32 -60,-42 -65,-33c-4,7 -17,56 -29,108c-12,52 -42,176 -66,276c-24,99 -44,193 -44,209l0,28l133,-6c72,-4 161,-13 196,-22zm1412,-175l56,0l-15,-60l-15,-60l-88,0c-152,0 -285,-19 -409,-60c-63,-21 -130,-40 -149,-44l-34,-6l8,102c4,55 9,107 12,114c6,16 181,23 423,18c85,-2 180,-4 211,-4zm32,-307c7,-179 25,-293 56,-355l18,-38l-145,0c-113,0 -171,-5 -266,-24c-66,-14 -139,-27 -162,-31l-40,-6l-42,84c-48,98 -90,250 -99,360l-6,77l39,0c21,0 94,16 162,35c112,31 170,40 407,58c22,2 47,4 56,5c14,2 17,-20 22,-165zm-971,85c22,-6 59,-29 82,-50c126,-110 109,-310 -61,-727c-31,-75 -92,-246 -137,-381l-81,-245l-91,-37c-157,-64 -291,-97 -494,-122l-45,-5l3,177c3,276 17,424 47,517c41,126 94,223 156,287c65,66 54,77 -19,19c-51,-41 -91,-98 -132,-188c-19,-43 -31,-55 -74,-76c-120,-58 -148,-62 -446,-61c-353,0 -592,29 -762,90c-120,43 -160,54 -194,54c-31,0 -34,3 -55,61c-41,113 -131,184 -300,238c-105,33 -239,51 -239,31c0,-5 15,-10 33,-10c84,-1 275,-66 365,-126c99,-66 123,-136 159,-474c14,-135 28,-316 30,-402l5,-158l-224,7c-122,3 -224,7 -226,9c-2,1 -25,67 -52,146c-86,258 -97,279 -324,598c-147,208 -196,322 -196,455c0,122 68,228 179,279c91,41 256,16 431,-65c49,-23 90,-45 90,-49c0,-4 30,-15 66,-24c151,-38 253,-110 402,-286c49,-58 103,-115 119,-126c81,-60 217,-107 343,-119c139,-13 346,28 489,96c71,35 103,59 210,162c403,389 736,567 943,505zm668,-550c0,-13 -7,-138 -15,-278c-21,-363 -45,-1049 -45,-1287l0,-201l-52,-4c-29,-2 -53,-4 -54,-4c0,1 3,69 7,151c13,246 49,1315 49,1443c0,169 3,179 54,191c22,5 44,9 49,10c4,1 7,-9 7,-21zm-2768,-268c130,-53 239,-76 468,-99c176,-18 334,-22 476,-12c149,11 237,33 312,75c23,14 42,21 42,17c0,-4 -9,-34 -19,-67c-11,-32 -23,-80 -26,-106c-7,-44 -10,-48 -49,-63c-126,-47 -447,-75 -661,-56c-72,6 -195,16 -275,21c-234,16 -377,45 -408,83c-6,7 -15,60 -21,118c-6,58 -13,114 -17,124c-7,16 -3,17 36,11c25,-4 88,-25 142,-46zm11,-294c98,-21 524,-56 678,-56c212,0 415,32 542,85c16,7 17,-4 17,-144c0,-83 -2,-151 -4,-151c-3,0 -85,15 -183,34c-98,19 -221,37 -273,40c-128,9 -313,-8 -495,-46c-224,-46 -229,-46 -321,-33c-47,7 -87,15 -88,17c-2,1 -9,55 -15,118c-6,63 -14,134 -17,158l-6,43l46,-25c26,-14 79,-32 119,-40zm207,-1207c69,-37 234,-33 435,9c186,39 244,46 289,38l35,-7l-36,-47c-31,-41 -69,-112 -86,-163c-3,-11 -30,-22 -74,-32c-196,-45 -451,-18 -621,65c-65,32 -67,34 -68,75c-1,22 -7,49 -12,60c-8,13 -5,27 11,55l21,38l30,-34c17,-18 51,-44 76,-57zm2494,-42c13,-9 17,-23 14,-52c-2,-32 -9,-42 -36,-58c-29,-17 -39,-18 -73,-8c-21,6 -51,23 -66,36c-23,19 -26,27 -17,42c26,44 138,70 178,40zm-104,-147c60,-16 115,0 138,41c10,16 23,29 29,29c19,0 162,-59 208,-85c97,-57 111,-112 40,-149c-36,-19 -57,-21 -203,-21l-162,0l-53,57c-64,71 -151,124 -217,133c-59,8 -57,20 2,29c24,4 58,15 77,25l35,18l31,-32c18,-20 48,-38 75,-45zm-2570,-130c0,-11 -16,-38 -36,-60c-28,-30 -52,-45 -102,-60c-64,-20 -82,-20 -492,-14c-294,5 -464,3 -551,-5c-187,-17 -259,4 -259,76c0,18 2,33 4,33c2,0 21,-7 42,-16c34,-15 81,-17 359,-15c327,2 394,6 665,43c85,11 202,24 260,28c58,4 106,8 108,8c1,1 2,-7 2,-18zm1215,-87c284,-31 1204,-21 1342,13c20,5 23,2 23,-24c0,-58 -74,-92 -203,-94c-574,-4 -1261,13 -1321,33c-45,15 -96,60 -96,84c0,15 7,17 48,11c26,-3 119,-14 207,-23z"/>
   <path id="svg_6" d="m2557,4816c-122,-44 -197,-173 -197,-337c0,-135 54,-231 155,-274c59,-26 179,-24 230,2c71,37 111,98 121,180l5,48l-24,-68c-41,-117 -111,-164 -230,-155c-155,13 -239,124 -224,297c9,101 33,158 92,217c103,103 233,94 300,-20c14,-25 39,-96 55,-158c21,-84 28,-103 29,-75c2,61 -29,188 -57,240c-55,101 -150,140 -255,103z"/>
   <path id="svg_7" d="m3219,4777c-84,-45 -143,-153 -171,-318c-10,-56 -9,-82 2,-136c27,-135 17,-243 -29,-292c-26,-27 -36,-31 -84,-31c-47,0 -63,5 -115,40c-65,44 -83,48 -103,24c-11,-13 -9,-14 15,-8c23,5 34,0 66,-31c61,-59 154,-75 225,-38c11,6 41,14 68,17c39,6 47,5 47,-9c0,-9 5,-13 10,-10c6,3 10,15 10,25c0,22 -37,36 -71,27c-16,-4 -19,-2 -13,11c4,9 9,47 12,84l4,68l30,-25c54,-46 120,-45 216,1c103,50 149,153 139,309c-16,247 -120,364 -258,292zm141,-36c58,-42 105,-259 81,-372c-25,-120 -102,-188 -221,-197c-45,-3 -60,0 -83,18c-36,29 -62,81 -77,156c-11,56 -10,67 15,150c46,151 91,224 159,255c46,22 88,19 126,-10z"/>
   <path id="svg_8" d="m3298,4485c-8,-19 -8,-31 0,-50c27,-59 80,-3 56,59c-9,25 -43,19 -56,-9z"/>
   <path id="svg_9" d="m2612,4548c-17,-17 -15,-63 4,-79c22,-18 48,0 52,35c6,45 -29,71 -56,44z"/>
   <path id="svg_10" d="m3536,4448c-20,-30 -37,-107 -25,-114c5,-3 20,20 33,50c25,55 39,68 50,44c3,-7 4,-2 3,12c-3,34 -40,39 -61,8z"/>
   <path id="svg_11" d="m2227,4403c-10,-10 -8,-63 2,-63c5,0 11,9 14,21c9,33 31,16 39,-29c9,-56 19,-71 29,-46c24,60 -2,124 -50,124c-15,0 -31,-3 -34,-7z"/>
   <path id="svg_12" d="m2641,4104c-12,-15 -21,-34 -21,-44c0,-9 -15,-46 -32,-80c-30,-57 -33,-72 -33,-149c0,-99 16,-144 73,-204c45,-46 124,-77 219,-84c132,-10 295,39 357,107c56,63 68,194 27,303c-6,16 -11,50 -11,77c0,27 -3,55 -6,64c-10,25 -27,19 -20,-7c8,-34 -10,-86 -41,-119c-25,-26 -25,-28 -6,-28c11,0 26,7 34,16c11,14 14,10 26,-28c18,-59 18,-58 -31,-52c-24,4 -68,1 -97,-6c-90,-22 -147,-18 -214,15c-78,39 -177,42 -242,8l-42,-22l13,42c7,23 19,54 26,69l12,26l32,-19c17,-10 40,-19 50,-19c15,0 10,8 -22,39l-42,38l14,42c17,47 7,53 -23,15z"/>
   <path id="svg_13" d="m2610,3582c0,-70 72,-120 186,-130c108,-8 351,60 393,111c17,22 16,22 -57,-8c-95,-38 -228,-67 -317,-69c-107,-1 -160,21 -186,79c-14,31 -19,35 -19,17z"/>
   <path id="svg_14" d="m5403,3644c-37,-18 -67,-75 -59,-110c20,-77 113,-85 139,-12c10,28 -9,30 -21,3c-13,-27 -49,-34 -70,-13c-20,20 -14,67 13,93c27,27 45,31 63,13c6,-6 15,-8 19,-4c8,7 -32,46 -46,46c-3,0 -20,-8 -38,-16z"/>
   <path id="svg_15" d="m4423,5891c137,-68 184,-162 141,-276c-8,-22 -18,-49 -21,-60c-12,-38 28,6 48,53c59,136 -31,282 -186,306c-39,7 -39,6 18,-23z"/>
   <path id="svg_16" d="m4419,5072c-49,-25 -139,-118 -139,-142c0,-27 165,18 240,65c46,29 53,64 18,89c-32,23 -58,20 -119,-12zm106,-21c3,-5 -7,-18 -22,-29c-35,-24 -174,-84 -181,-77c-6,6 63,71 103,96c32,20 90,26 100,10z"/>
   <path id="svg_17" d="m1112,5058c-26,-13 -39,-54 -25,-77c14,-23 70,-39 171,-50c160,-18 234,-22 228,-12c-9,13 -151,93 -213,119c-64,27 -131,36 -161,20zm166,-58c42,-17 88,-37 102,-45c25,-15 25,-15 -10,-10c-19,2 -71,10 -115,16c-112,15 -162,38 -138,62c15,16 89,5 161,-23z"/>
   <path id="svg_18" d="m4279,4656c-72,-25 -173,-106 -151,-120c15,-9 203,23 241,42c48,23 53,55 12,76c-36,19 -54,19 -102,2zm91,-36c0,-10 -104,-45 -166,-55l-39,-7l35,23c19,12 49,28 65,35c35,15 105,18 105,4z"/>
   <path id="svg_19" d="m1452,4644c-7,-3 -19,-19 -28,-36c-13,-25 -13,-35 -4,-59c15,-35 43,-44 113,-35c29,4 76,9 105,13c29,3 54,9 57,13c8,14 -36,60 -78,81c-40,21 -139,34 -165,23zm172,-63l50,-26l-97,-9c-53,-4 -103,-6 -112,-3c-8,4 -15,18 -15,32c0,52 84,55 174,6z"/>
   <path id="svg_20" d="m1045,3156c-137,-34 -231,-129 -251,-254c-9,-58 1,-53 22,11c50,154 177,227 398,227c89,0 129,13 76,24c-51,10 -190,5 -245,-8z"/>
   <path id="svg_21" d="m1135,3063c-41,-21 -63,-41 -96,-87c-46,-63 -34,-62 37,3c53,49 76,62 120,72c29,7 51,16 48,21c-9,13 -77,8 -109,-9z"/>
  </g>
 </g>
</svg>